<svg width="413" height="413" viewBox="0 0 413 413" fill="none" xmlns="http://www.w3.org/2000/svg">
<g clip-path="url(#clip0)">
<path d="M375.96 205.536H375.993C375.993 193.731 371.371 183.006 363.854 175.007L363.867 174.994L298.535 91.077H110.57L47.1206 176.696L47.1478 176.723C41.1453 183.824 37.4538 192.848 36.8176 202.696C36.342 203.62 36 204.618 36 205.73V317.108C36 320.812 39.0016 323.807 42.6997 323.807H369.3C373.005 323.807 376 320.813 376 317.108V205.73C375.999 205.664 375.96 205.603 375.96 205.536ZM116.641 104.476H292.673L332.554 160.932C332.132 160.919 331.729 160.866 331.301 160.866H250.942V180.95C250.942 203.755 226.998 198.824 219.657 198.824H192.899C185.556 198.824 161.613 203.755 161.613 180.95V160.866H81.2472C80.4098 160.866 79.5922 160.946 78.7615 160.986L116.641 104.476ZM362.601 310.408H49.4052V205.73C49.4052 205.664 49.3714 205.603 49.3648 205.536H49.9607C49.9607 188.292 63.9956 174.263 81.2464 174.263H148.213V180.949C148.213 204.015 165.752 212.222 192.898 212.222H219.656C246.808 212.222 264.341 204.015 264.341 180.949V174.263H331.314C339.936 174.263 347.755 177.767 353.422 183.428L353.435 183.441C359.096 189.103 362.593 196.914 362.593 205.536H362.64C362.64 205.603 362.6 205.663 362.6 205.73L362.601 310.408Z" fill="#949494"/>
<path d="M55.2188 410H49.9414L29.8984 379.32V410H24.6211V370.188H29.8984L49.9961 401.004V370.188H55.2188V410ZM62.4102 394.934C62.4102 392.035 62.9753 389.428 64.1055 387.113C65.2539 384.798 66.8398 383.012 68.8633 381.754C70.9049 380.496 73.2292 379.867 75.8359 379.867C79.8646 379.867 83.1185 381.262 85.5977 384.051C88.0951 386.84 89.3438 390.549 89.3438 395.18V395.535C89.3438 398.415 88.7878 401.004 87.6758 403.301C86.582 405.579 85.0052 407.357 82.9453 408.633C80.9036 409.909 78.5521 410.547 75.8906 410.547C71.8802 410.547 68.6263 409.152 66.1289 406.363C63.6497 403.574 62.4102 399.883 62.4102 395.289V394.934ZM67.4961 395.535C67.4961 398.816 68.2526 401.451 69.7656 403.438C71.2969 405.424 73.3385 406.418 75.8906 406.418C78.4609 406.418 80.5026 405.415 82.0156 403.41C83.5286 401.387 84.2852 398.561 84.2852 394.934C84.2852 391.689 83.5104 389.064 81.9609 387.059C80.4297 385.035 78.388 384.023 75.8359 384.023C73.3385 384.023 71.3242 385.017 69.793 387.004C68.2617 388.991 67.4961 391.835 67.4961 395.535ZM110.371 410V370.188H121.609C125.073 370.188 128.135 370.953 130.797 372.484C133.458 374.016 135.509 376.194 136.949 379.02C138.408 381.845 139.146 385.09 139.164 388.754V391.297C139.164 395.052 138.435 398.342 136.977 401.168C135.536 403.993 133.467 406.163 130.77 407.676C128.09 409.189 124.964 409.964 121.391 410H110.371ZM115.621 374.508V405.707H121.145C125.191 405.707 128.336 404.449 130.578 401.934C132.839 399.418 133.969 395.836 133.969 391.188V388.863C133.969 384.342 132.902 380.833 130.77 378.336C128.655 375.82 125.647 374.544 121.746 374.508H115.621ZM164.594 410C164.302 409.417 164.065 408.378 163.883 406.883C161.531 409.326 158.724 410.547 155.461 410.547C152.544 410.547 150.147 409.727 148.27 408.086C146.41 406.427 145.48 404.331 145.48 401.797C145.48 398.716 146.647 396.328 148.98 394.633C151.332 392.919 154.632 392.062 158.879 392.062H163.801V389.738C163.801 387.97 163.272 386.566 162.215 385.527C161.158 384.47 159.599 383.941 157.539 383.941C155.734 383.941 154.221 384.397 153 385.309C151.779 386.22 151.168 387.323 151.168 388.617H146.082C146.082 387.141 146.602 385.719 147.641 384.352C148.698 382.966 150.12 381.872 151.906 381.07C153.711 380.268 155.689 379.867 157.84 379.867C161.249 379.867 163.919 380.724 165.852 382.438C167.784 384.133 168.786 386.475 168.859 389.465V403.082C168.859 405.798 169.206 407.958 169.898 409.562V410H164.594ZM156.199 406.145C157.785 406.145 159.289 405.734 160.711 404.914C162.133 404.094 163.163 403.027 163.801 401.715V395.645H159.836C153.638 395.645 150.539 397.458 150.539 401.086C150.539 402.672 151.068 403.911 152.125 404.805C153.182 405.698 154.54 406.145 156.199 406.145ZM183.652 373.25V380.414H189.176V384.324H183.652V402.672C183.652 403.857 183.898 404.75 184.391 405.352C184.883 405.935 185.721 406.227 186.906 406.227C187.49 406.227 188.292 406.117 189.312 405.898V410C187.982 410.365 186.688 410.547 185.43 410.547C183.169 410.547 181.465 409.863 180.316 408.496C179.168 407.129 178.594 405.188 178.594 402.672V384.324H173.207V380.414H178.594V373.25H183.652ZM213.375 410C213.083 409.417 212.846 408.378 212.664 406.883C210.312 409.326 207.505 410.547 204.242 410.547C201.326 410.547 198.928 409.727 197.051 408.086C195.191 406.427 194.262 404.331 194.262 401.797C194.262 398.716 195.428 396.328 197.762 394.633C200.113 392.919 203.413 392.062 207.66 392.062H212.582V389.738C212.582 387.97 212.053 386.566 210.996 385.527C209.939 384.47 208.38 383.941 206.32 383.941C204.516 383.941 203.003 384.397 201.781 385.309C200.56 386.22 199.949 387.323 199.949 388.617H194.863C194.863 387.141 195.383 385.719 196.422 384.352C197.479 382.966 198.901 381.872 200.688 381.07C202.492 380.268 204.47 379.867 206.621 379.867C210.03 379.867 212.701 380.724 214.633 382.438C216.565 384.133 217.568 386.475 217.641 389.465V403.082C217.641 405.798 217.987 407.958 218.68 409.562V410H213.375ZM204.98 406.145C206.566 406.145 208.07 405.734 209.492 404.914C210.914 404.094 211.944 403.027 212.582 401.715V395.645H208.617C202.419 395.645 199.32 397.458 199.32 401.086C199.32 402.672 199.849 403.911 200.906 404.805C201.964 405.698 203.322 406.145 204.98 406.145ZM262.211 392.418H245.504V410H240.254V370.188H264.918V374.508H245.504V388.125H262.211V392.418ZM268.473 394.934C268.473 392.035 269.038 389.428 270.168 387.113C271.316 384.798 272.902 383.012 274.926 381.754C276.967 380.496 279.292 379.867 281.898 379.867C285.927 379.867 289.181 381.262 291.66 384.051C294.158 386.84 295.406 390.549 295.406 395.18V395.535C295.406 398.415 294.85 401.004 293.738 403.301C292.645 405.579 291.068 407.357 289.008 408.633C286.966 409.909 284.615 410.547 281.953 410.547C277.943 410.547 274.689 409.152 272.191 406.363C269.712 403.574 268.473 399.883 268.473 395.289V394.934ZM273.559 395.535C273.559 398.816 274.315 401.451 275.828 403.438C277.359 405.424 279.401 406.418 281.953 406.418C284.523 406.418 286.565 405.415 288.078 403.41C289.591 401.387 290.348 398.561 290.348 394.934C290.348 391.689 289.573 389.064 288.023 387.059C286.492 385.035 284.451 384.023 281.898 384.023C279.401 384.023 277.387 385.017 275.855 387.004C274.324 388.991 273.559 391.835 273.559 395.535ZM320.016 407.074C318.047 409.389 315.158 410.547 311.348 410.547C308.194 410.547 305.788 409.635 304.129 407.812C302.488 405.971 301.659 403.255 301.641 399.664V380.414H306.699V399.527C306.699 404.012 308.522 406.254 312.168 406.254C316.033 406.254 318.603 404.814 319.879 401.934V380.414H324.938V410H320.125L320.016 407.074ZM337.434 380.414L337.598 384.133C339.858 381.289 342.811 379.867 346.457 379.867C352.71 379.867 355.863 383.395 355.918 390.449V410H350.859V390.422C350.841 388.289 350.349 386.712 349.383 385.691C348.435 384.671 346.949 384.16 344.926 384.16C343.285 384.16 341.845 384.598 340.605 385.473C339.366 386.348 338.4 387.496 337.707 388.918V410H332.648V380.414H337.434ZM362.316 394.961C362.316 390.422 363.392 386.776 365.543 384.023C367.694 381.253 370.51 379.867 373.992 379.867C377.456 379.867 380.199 381.052 382.223 383.422V368H387.281V410H382.633L382.387 406.828C380.363 409.307 377.547 410.547 373.938 410.547C370.51 410.547 367.712 409.143 365.543 406.336C363.392 403.529 362.316 399.865 362.316 395.344V394.961ZM367.375 395.535C367.375 398.889 368.068 401.514 369.453 403.41C370.839 405.306 372.753 406.254 375.195 406.254C378.404 406.254 380.746 404.814 382.223 401.934V388.344C380.71 385.555 378.385 384.16 375.25 384.16C372.771 384.16 370.839 385.117 369.453 387.031C368.068 388.945 367.375 391.78 367.375 395.535Z" fill="#949494"/>
</g>
<defs>
<clipPath id="clip0">
<rect width="412.533" height="412.533" fill="white"/>
</clipPath>
</defs>
</svg>
