<svg width="400" height="371" viewBox="0 0 400 371" fill="none" xmlns="http://www.w3.org/2000/svg">
<g clip-path="url(#clip0)">
<path d="M358.333 350H41.6667C18.7 350 0 331.3 0 308.333V91.6667C0 68.7 18.7 50 41.6667 50H358.333C381.3 50 400 68.7 400 91.6667V308.333C400 331.3 381.3 350 358.333 350ZM41.6667 66.6667C27.8833 66.6667 16.6667 77.8833 16.6667 91.6667V308.333C16.6667 322.117 27.8833 333.333 41.6667 333.333H358.333C372.117 333.333 383.333 322.117 383.333 308.333V91.6667C383.333 77.8833 372.117 66.6667 358.333 66.6667H41.6667Z" fill="#CCCCCC"/>
<path d="M124.999 200C102.032 200 83.332 181.3 83.332 158.334C83.332 135.367 102.032 116.667 124.999 116.667C147.965 116.667 166.665 135.367 166.665 158.334C166.665 181.3 147.965 200 124.999 200ZM124.999 133.334C111.215 133.334 99.9987 144.55 99.9987 158.334C99.9987 172.117 111.215 183.334 124.999 183.334C138.782 183.334 149.999 172.117 149.999 158.334C149.999 144.55 138.782 133.334 124.999 133.334Z" fill="#CCCCCC"/>
<path d="M191.667 283.334C187.067 283.334 183.333 279.6 183.333 275V258.334C183.333 244.55 172.117 233.334 158.333 233.334H91.6667C77.8833 233.334 66.6667 244.55 66.6667 258.334V275C66.6667 279.6 62.9333 283.334 58.3333 283.334C53.7333 283.334 50 279.6 50 275V258.334C50 235.367 68.7 216.667 91.6667 216.667H158.333C181.3 216.667 200 235.367 200 258.334V275C200 279.6 196.267 283.334 191.667 283.334Z" fill="#CCCCCC"/>
<path d="M341.665 150H241.665C237.065 150 233.332 146.266 233.332 141.666C233.332 137.066 237.065 133.333 241.665 133.333H341.665C346.265 133.333 349.999 137.066 349.999 141.666C349.999 146.266 346.265 150 341.665 150Z" fill="#CCCCCC"/>
<path d="M341.665 216.667H241.665C237.065 216.667 233.332 212.933 233.332 208.333C233.332 203.733 237.065 200 241.665 200H341.665C346.265 200 349.999 203.733 349.999 208.333C349.999 212.933 346.265 216.667 341.665 216.667Z" fill="#CCCCCC"/>
<path d="M341.665 283.334H241.665C237.065 283.334 233.332 279.6 233.332 275C233.332 270.4 237.065 266.667 241.665 266.667H341.665C346.265 266.667 349.999 270.4 349.999 275C349.999 279.6 346.265 283.334 341.665 283.334Z" fill="#CCCCCC"/>
</g>
<defs>
<clipPath id="clip0">
<rect width="400" height="400" fill="white"/>
</clipPath>
</defs>
</svg>
