<svg width="767" height="813" viewBox="0 0 767 813" fill="none" xmlns="http://www.w3.org/2000/svg">
<path d="M28.061 277.703L40.4314 277.611C49.1495 277.544 61.501 277.457 76.7578 277.352C80.3615 277.319 84.1325 277.293 88.0492 277.268C93.6275 277.222 99.516 277.18 105.688 277.134L125.161 276.996C306.641 275.691 673.316 273.168 673.591 274.155L673.647 274.31C673.647 274.31 673.709 274.465 673.709 274.545C673.941 275.176 797.35 457.972 653.465 582.844C597.167 631.701 649.002 653.935 603.058 706.038C562.373 752.188 513.313 742.293 468.334 732.397C435.328 725.138 404.518 717.879 380.829 732.761C222.773 832.077 161.935 816.664 115.585 799.505C108.655 796.936 100.363 791.76 92.063 784.375C79.5118 773.217 66.931 757.016 58.9816 737.171C47.5742 708.695 45.7103 672.712 67.163 633.366C67.5892 632.583 67.9965 631.784 68.3741 630.977C79.3123 607.802 71.5544 574.898 58.1967 542.209C49.6404 521.272 38.7941 500.427 29.0887 482.281C-35.461 361.593 27.481 279.285 28.061 277.703Z" fill="#EAFDF4"/>
<g clip-path="url(#clip0)">
<path d="M724.697 561.562L712.326 561.654C703.608 561.721 691.257 561.809 676 561.914C672.396 561.947 668.625 561.972 664.709 561.997C659.13 562.043 653.242 562.085 647.07 562.131L627.597 562.269C446.116 563.575 79.4414 566.098 79.1665 565.11L79.1104 564.955C79.1104 564.955 79.0489 564.801 79.0489 564.721C78.8166 564.089 -44.5925 381.294 99.2929 256.422C155.591 207.565 103.756 185.331 149.7 133.228C190.385 87.0778 239.445 96.973 284.424 106.868C317.43 114.127 348.24 121.387 371.929 106.504C529.985 7.18817 590.823 22.6021 637.173 39.7607C644.103 42.3297 652.395 47.5054 660.695 54.8902C673.246 66.0489 685.827 82.2495 693.776 102.094C705.184 130.571 707.047 166.553 685.595 205.9C685.169 206.682 684.761 207.481 684.384 208.289C673.445 231.464 681.203 264.367 694.561 297.057C703.117 317.994 713.964 338.839 723.669 356.985C788.219 477.673 725.277 559.981 724.697 561.562Z" fill="#EAFDF4"/>
<path d="M711.67 438.57L594.408 468.438L567.594 252.565L684.856 222.698L711.67 438.57Z" fill="#D2E0FF"/>
<path d="M676.722 250.086L642.638 258.767C642.279 258.857 641.937 258.515 641.874 258.004C641.809 257.49 642.047 257 642.407 256.907L676.491 248.226C676.848 248.136 677.192 248.478 677.255 248.989C677.318 249.503 677.079 249.992 676.722 250.086Z" fill="#AEC3FF"/>
<path d="M677.514 256.446L643.43 265.127C643.073 265.221 642.729 264.879 642.666 264.365C642.603 263.854 642.842 263.361 643.199 263.271L677.283 254.59C677.643 254.496 677.984 254.838 678.047 255.353C678.112 255.867 677.874 256.356 677.514 256.446Z" fill="#AEC3FF"/>
<path d="M678.304 262.81L644.22 271.491C643.861 271.585 643.519 271.243 643.456 270.729C643.391 270.214 643.629 269.725 643.989 269.635L678.073 260.954C678.43 260.861 678.774 261.202 678.837 261.717C678.9 262.228 678.661 262.721 678.304 262.81Z" fill="#AEC3FF"/>
<path d="M659.179 287.278L635.646 293.271C635.131 293.404 634.639 292.911 634.546 292.174C634.455 291.436 634.799 290.731 635.314 290.598L658.847 284.605C659.362 284.475 659.855 284.968 659.948 285.706C660.038 286.443 659.696 287.148 659.179 287.278Z" fill="#AEC3FF"/>
<path d="M680.378 281.881L665.902 285.565C665.387 285.698 664.895 285.205 664.804 284.468C664.711 283.73 665.055 283.025 665.57 282.892L680.044 279.205C680.561 279.075 681.054 279.568 681.144 280.306C681.237 281.043 680.893 281.748 680.378 281.881Z" fill="#AEC3FF"/>
<path d="M674.201 292.562L638.047 301.772C637.532 301.902 637.039 301.412 636.949 300.675C636.856 299.934 637.2 299.229 637.715 299.099L673.87 289.889C674.385 289.76 674.877 290.249 674.968 290.99C675.061 291.728 674.716 292.433 674.201 292.562Z" fill="#AEC3FF"/>
<path d="M650.995 318.091L627.463 324.085C626.948 324.218 626.455 323.725 626.362 322.987C626.272 322.25 626.613 321.545 627.131 321.412L650.664 315.418C651.179 315.289 651.671 315.778 651.764 316.519C651.855 317.257 651.51 317.962 650.995 318.091Z" fill="#AEC3FF"/>
<path d="M672.194 312.691L657.718 316.379C657.203 316.512 656.711 316.019 656.621 315.281C656.528 314.54 656.872 313.839 657.387 313.706L671.86 310.018C672.378 309.889 672.87 310.381 672.961 311.119C673.051 311.856 672.709 312.562 672.194 312.691Z" fill="#AEC3FF"/>
<path d="M684.481 318.742L627.959 333.139C627.441 333.269 626.951 332.776 626.858 332.039C626.768 331.301 627.109 330.596 627.627 330.463L684.146 316.069C684.664 315.936 685.154 316.429 685.247 317.166C685.34 317.904 684.996 318.609 684.481 318.742Z" fill="#AEC3FF"/>
<path d="M653.098 337.471L629.565 343.469C629.047 343.598 628.555 343.105 628.464 342.368C628.371 341.63 628.716 340.925 629.231 340.796L652.766 334.798C653.281 334.669 653.773 335.162 653.864 335.899C653.957 336.637 653.613 337.342 653.098 337.471Z" fill="#AEC3FF"/>
<path d="M675.234 332.161L660.758 335.848C660.243 335.982 659.75 335.489 659.66 334.751C659.567 334.014 659.911 333.308 660.426 333.175L674.902 329.488C675.417 329.358 675.909 329.851 676 330.589C676.093 331.326 675.749 332.031 675.234 332.161Z" fill="#AEC3FF"/>
<path d="M666.553 343.583L630.398 352.793C629.883 352.922 629.391 352.429 629.3 351.692C629.207 350.954 629.552 350.249 630.067 350.12L666.221 340.91C666.736 340.777 667.229 341.27 667.322 342.007C667.412 342.745 667.068 343.45 666.553 343.583Z" fill="#AEC3FF"/>
<path d="M620.359 434.16L596.826 440.153C596.308 440.283 595.818 439.793 595.725 439.056C595.635 438.315 595.977 437.61 596.492 437.48L620.027 431.487C620.542 431.353 621.034 431.846 621.127 432.584C621.218 433.321 620.874 434.026 620.359 434.16Z" fill="#AEC3FF"/>
<path d="M642.491 428.849L628.015 432.537C627.5 432.666 627.008 432.174 626.918 431.436C626.825 430.699 627.169 429.994 627.684 429.864L642.16 426.177C642.675 426.043 643.167 426.536 643.258 427.274C643.351 428.011 643.006 428.716 642.491 428.849Z" fill="#AEC3FF"/>
<path d="M633.811 440.268L597.658 449.478C597.141 449.611 596.649 449.119 596.558 448.381C596.465 447.64 596.809 446.938 597.324 446.805L633.479 437.595C633.994 437.466 634.486 437.959 634.579 438.696C634.67 439.434 634.328 440.139 633.811 440.268Z" fill="#AEC3FF"/>
<path d="M601.215 204.562C601.215 204.562 606.787 213.38 607.104 217.43C607.42 221.481 604.599 230.425 605.953 234.325C606.375 235.537 612.777 247.614 614.739 248.298C616.065 248.762 617.982 244.006 616.083 239.376C614.158 234.688 613.779 225.378 614.088 221.276C614.618 214.286 618.078 198.029 618.708 201.079L629.483 198.629L619.281 192.65L601.215 204.562Z" fill="#E59365"/>
<path d="M597.771 225.946C597.771 225.946 596.816 243.657 597.761 250.417C598.14 253.129 599.969 261.85 601.778 262.792C604.763 264.347 606.393 256.838 605.097 248.686C604.743 246.452 607.192 232.691 608.828 226.399C612.895 210.757 615.35 201.339 615.35 201.339L597.771 225.946Z" fill="#F2A36D"/>
<path d="M686.762 168.903C684.119 171.123 681.65 173.227 679.499 175.095C678.303 176.138 677.206 177.102 676.238 177.976C674.676 179.386 673.45 180.545 672.676 181.369C670.694 183.47 667.438 186.031 665.038 189.55V189.557L665.023 189.571C660.343 194.309 660.134 199.896 659.959 203.307C659.519 211.768 654.027 224.216 646.568 236.671C642.5 243.463 638.905 253.4 637.667 257.332C637.262 258.623 636.501 261.62 635.624 264.789C634.408 269.204 632.964 273.956 631.936 274.895C631.64 275.161 631.142 275.079 630.562 274.766C629.092 273.978 627.085 271.722 626.497 269.977C624.736 264.764 626.108 256.796 629.474 244.193C632.685 232.188 632.218 226.126 630.979 220.769C630.17 217.287 628.999 213.938 625.404 211.916C624.982 211.678 623.681 210.786 621.904 210.081C620.166 209.394 617.978 208.883 615.724 209.351C614.943 209.513 614.154 209.786 613.373 210.218C611.594 211.193 609.858 212.952 608.361 215.877C608.313 215.967 608.263 216.06 608.215 216.15L608.212 216.154L608.21 216.157C607.619 217.269 606.939 218.305 606.213 219.294C604.768 221.255 603.135 223.025 601.638 224.813C600.165 226.58 598.819 228.36 597.909 230.379V230.382C597.367 231.58 596.977 232.868 596.811 234.278C596.264 238.876 594.628 243.416 592.995 248.453C591.814 252.097 590.636 256.001 589.88 260.375C588.059 270.902 583.896 272.01 581.712 268.837C581.685 268.797 581.657 268.754 581.63 268.714C580.961 267.682 580.956 261.983 581.135 256.857C581.265 253.018 581.501 249.5 581.64 248.5C582.067 245.377 585.695 233.109 587.438 220.428C588.739 210.966 599.068 196.831 606.346 178.174C609.968 168.892 623.907 166.334 638.468 154.232C639.252 153.585 640.111 153.139 640.925 152.57L640.928 152.566C643.252 150.94 645.528 149.181 647.756 147.307C651.012 147.274 654.296 147.494 657.599 147.951C659.818 148.257 662.041 148.667 664.275 149.185C667.817 150.001 671.372 151.07 674.927 152.379C679.429 157.844 683.341 163.363 686.762 168.903Z" fill="#FFB27D"/>
<path d="M680.382 176.591L677.862 178.918L677.201 179.526L665.516 190.326L665.024 189.571L640.855 152.652L640.926 152.566H640.928C640.928 152.566 651.5 141.784 652.309 141.644C652.533 141.604 652.756 141.565 652.977 141.529C654.173 142.932 656.042 145.248 658.258 148.044C665.355 157.002 676 170.87 679.341 175.231C680.007 176.101 680.382 176.591 680.382 176.591Z" fill="#9FC1F4"/>
<path d="M697.995 166.766L683.019 182.135C683.019 182.135 680.663 180.886 677.861 178.919C677.381 178.58 676.887 178.221 676.389 177.843C674.648 176.523 672.864 174.968 671.457 173.303C664.93 165.597 658.934 154.836 655.271 147.67L655.268 147.666C653.952 145.094 652.937 142.982 652.309 141.644C652.417 141.622 659.539 134.031 667.184 126.178C678.874 135.773 690.591 149.703 697.995 166.766Z" fill="#F99746"/>
<path d="M667.925 180.045C668.322 179.127 669.161 178.843 669.802 179.408C670.443 179.973 670.641 181.178 670.247 182.095C669.85 183.013 669.011 183.297 668.37 182.729C667.729 182.164 667.531 180.962 667.925 180.045Z" fill="#2A4E96"/>
<path d="M563.234 253.673L628.479 237.056L620.44 288.746L574.123 303.492L563.234 253.673Z" fill="#D2E0FF"/>
<path d="M623.322 279.614C624.373 287.148 623.456 294.588 621.084 300.847C620.22 303.121 619.167 305.236 617.946 307.136C616.466 309.463 614.73 311.482 612.793 313.093C610.743 314.813 608.46 316.076 605.997 316.777C604.653 317.162 603.312 317.364 601.988 317.393V317.385C600.244 317.429 598.531 317.17 596.88 316.63C595.139 316.076 593.459 315.22 591.883 314.094C590.898 313.403 589.951 312.593 589.054 311.694C587.524 310.172 586.133 308.363 584.909 306.323C582.533 302.351 580.814 297.476 580.048 291.976C577.664 274.866 585.419 258.223 597.368 254.809C609.316 251.395 620.938 262.508 623.322 279.614Z" fill="#8C9DF4"/>
<path d="M618.884 289.566C615.892 279.349 609.4 267.419 604.785 262.365C603.722 261.199 602.758 260.404 601.959 260.073C601.645 259.94 601.341 259.843 601.047 259.774C598.263 259.08 596.459 260.782 596.459 260.782C587.091 261.857 586.548 277.91 587.405 283.137C588.179 287.864 589.241 292.851 587.111 299.686C586.887 300.402 586.629 301.139 586.33 301.898C585.699 303.514 585.229 304.985 584.91 306.323C586.131 308.363 587.523 310.173 589.053 311.698C589.95 312.594 590.9 313.407 591.882 314.094C593.457 315.22 595.138 316.077 596.879 316.631C598.529 317.167 600.243 317.429 601.984 317.386C601.393 308.831 605.87 306.086 609.483 305.629C611.897 305.323 613.925 306.043 613.787 306.73C615.244 306.806 616.427 306.582 617.379 306.104C619.462 305.043 620.402 302.737 620.512 299.693C620.615 296.829 619.987 293.311 618.884 289.566Z" fill="#163560"/>
<path d="M596.88 316.63C595.139 316.076 593.459 315.22 591.884 314.094C590.899 313.403 589.952 312.593 589.055 311.694C589.288 310.345 589.467 309.298 589.567 308.748C590.771 302.182 593.765 299.541 593.765 299.541L596.88 316.63Z" fill="#FFA561"/>
<path d="M617.946 307.136C616.466 309.463 614.73 311.482 612.793 313.093C610.743 314.813 608.459 316.076 605.997 316.777C604.653 317.162 603.311 317.364 601.987 317.393V317.385C600.244 317.429 598.53 317.17 596.88 316.63C595.139 316.076 593.458 315.22 591.883 314.094C592.388 305.567 593.765 299.541 593.765 299.541C593.765 299.541 595.164 298.25 597.955 296.886C599.972 295.897 602.708 294.882 606.17 294.285C607.55 294.044 609.052 293.875 610.67 293.8L617.38 306.1L617.946 307.136Z" fill="#FFA561"/>
<path d="M606.139 294.206C605.222 292.238 604.405 289.072 603.85 285.021L603.456 285.255L596.828 289.18C596.828 289.18 597.419 292.249 597.831 295.177L597.841 295.249C598.205 297.793 597.351 300.689 600.34 300.887C601.265 300.944 608.063 298.347 606.139 294.206Z" fill="#FFB27D"/>
<path d="M596.828 289.181C596.828 289.181 597.419 292.249 597.831 295.178C601.672 293.919 603.008 288.288 603.456 285.256L596.828 289.181Z" fill="#E8945B"/>
<path d="M595.924 292.325C595.924 292.325 605.092 289.932 603.964 281.777C602.835 273.624 603.258 267.825 597.356 269.009C591.455 270.192 590.751 273.628 590.666 276.477C590.58 279.33 593.51 292.738 595.924 292.325Z" fill="#FFB27D"/>
<path d="M593.164 269.999C593.164 269.999 596.998 278.849 601.035 279.165C605.072 279.482 606.532 277.532 606.532 277.532C606.532 277.532 603.12 275.025 601.693 269.351C601.693 269.351 594.418 264.908 593.164 269.999Z" fill="#163560"/>
<path d="M593.894 270.599C593.894 270.599 592.178 272.121 591.683 274.276C591.201 276.384 590.914 279.075 591.492 282.111C591.492 282.111 588.701 276.15 590.306 271.869C592.01 267.329 593.894 270.599 593.894 270.599Z" fill="#163560"/>
<path d="M612.793 313.094C612.112 312.425 611.376 311.716 610.585 310.96C609.763 310.18 609.487 308.086 609.484 305.629C609.477 300.52 610.67 293.8 610.67 293.8C610.67 293.8 616.768 292.681 620.511 299.689C620.662 299.959 620.802 300.247 620.941 300.542C620.991 300.643 621.034 300.747 621.084 300.848C620.22 303.121 619.167 305.237 617.946 307.136C616.466 309.464 614.73 311.482 612.793 313.094Z" fill="#FFA561"/>
<path d="M675.657 420.73C665.55 426.914 653.815 420.169 649.497 405.692C645.178 391.219 649.888 374.415 659.996 368.23C665.372 364.939 671.208 365.309 676.147 368.554C678.514 370.108 680.672 372.324 682.471 375.116C683.978 377.447 685.237 380.182 686.156 383.265C690.475 397.738 685.764 414.546 675.657 420.73ZM688.563 381.793C687.367 377.789 685.669 374.307 683.619 371.432C681.74 368.799 679.564 366.68 677.21 365.136C671.633 361.485 665.04 361.071 658.968 364.787C647.534 371.781 642.206 390.794 647.09 407.167C651.974 423.54 665.249 431.166 676.687 424.173C688.121 417.175 693.447 398.166 688.563 381.793Z" fill="#8C9DF4"/>
<path d="M669.101 410.156C668.247 410.163 667.408 409.76 666.725 408.991L652.105 392.582C650.442 390.718 650.153 387.276 651.455 384.898C652.756 382.52 655.16 382.102 656.821 383.966L667.586 396.05L679.045 359.25C679.904 356.487 682.165 355.246 684.092 356.48C686.022 357.711 686.888 360.948 686.027 363.708L672.573 406.911C672.093 408.454 671.146 409.591 670.003 409.998C669.704 410.102 669.403 410.156 669.101 410.156Z" fill="#21B371"/>
<path d="M231.036 435.861C226.815 435.861 222.77 435.332 219.431 434.376C206.884 430.778 212.332 425.68 219.054 417.417C225.777 409.157 239.926 411.229 244.093 407.976C247.74 405.134 243.513 402.346 236.804 402.346C235.846 402.346 234.835 402.4 233.791 402.523C225.437 403.501 221.298 415.492 207.805 417.424C207.455 417.474 207.108 417.499 206.763 417.499C193.781 417.499 183.91 383.063 183.91 383.063C185.796 383.891 187.981 384.243 190.275 384.24C199.331 384.24 210.06 378.739 210.561 375.062C211.189 370.457 186.443 371.08 182.581 369.727C178.72 368.371 171.935 357.369 176.042 335.251C178.595 321.501 189.63 318.9 197.615 318.9C202.474 318.9 206.204 319.865 206.204 319.865C206.204 319.865 224.006 358.405 229.151 359.29C229.21 359.301 229.267 359.308 229.32 359.308C233.932 359.305 218.424 322.084 218.424 322.084C218.824 322.027 219.247 321.998 219.694 321.998C230.382 321.998 253.83 337.957 253.83 337.957C253.83 337.957 252.399 382.135 257.349 382.131C257.401 382.131 257.455 382.124 257.508 382.117C262.648 381.16 257.379 342.076 257.379 342.076C267.034 346.152 276.085 362.201 276.085 362.201C287.42 388.359 263.377 407.851 263.377 407.851C255.55 372.925 187.956 342.076 187.956 342.076C261.986 384.387 261.143 412.858 259.48 419.953C259.302 420.507 259.117 421.082 258.922 421.687C255.653 431.839 242.673 435.865 231.036 435.861Z" fill="#BACDFE"/>
<path d="M269.669 447.445C269.486 446.859 269.216 446.006 268.876 444.956C268.877 444.959 268.877 444.959 268.877 444.959C269.162 445.747 269.426 446.578 269.669 447.445ZM269.915 441.405C269.915 441.405 267.521 437.127 266.85 437.127C266.577 437.127 266.59 437.836 267.165 439.833C264.736 432.782 261.241 423.601 258.923 421.687C258.923 421.687 259.213 421.097 259.481 419.953C261.144 412.858 261.988 384.387 187.957 342.076C187.957 342.076 255.551 372.925 263.378 407.85C263.378 407.85 263.107 423.5 269.915 441.405Z" fill="#BACDFE"/>
<path d="M274.55 491.559L271.869 490.548C271.869 490.548 274.117 463.253 269.667 447.445C269.424 446.578 269.16 445.747 268.875 444.959C268.06 442.7 267.51 441.034 267.163 439.833C266.588 437.836 266.576 437.127 266.849 437.127C267.52 437.127 269.913 441.405 269.913 441.405C269.913 441.405 280.395 463.969 274.55 491.559Z" fill="#BACDFE"/>
<path d="M309.293 445.741C309.293 445.741 372.003 432.674 396.345 494.488C396.345 494.488 400.945 506.594 392.332 516.361C383.718 526.132 376.671 500.877 368.425 487.469C360.177 474.061 333.444 447.047 309.293 445.741Z" fill="#D2E0FF"/>
<path d="M319.617 438.181C319.617 438.181 365.258 404.508 395.283 442.682C395.283 442.682 401.036 450.219 396.233 460.954C391.432 471.689 381.385 455 372.599 447.841C363.814 440.678 338.359 430.072 319.617 438.181Z" fill="#D2E0FF"/>
<path d="M722.036 522.052C718.538 523.987 695.33 527.675 696.304 531.877C697.277 536.075 713.524 540.191 721.912 534.762C721.912 534.762 718.787 551.491 712.72 562.226C705.203 562.28 694.558 562.352 681.409 562.438C679.964 561.819 678.482 561.47 676.877 561.578C674.967 561.704 673.199 562.039 671.676 562.503C666.868 562.539 661.793 562.571 656.474 562.607L639.692 562.719C634.238 555.909 629.412 545.296 633.909 531.146C633.909 531.146 641.026 514.569 649.719 509.086C649.719 509.086 648.078 546.569 652.967 546.576C657.856 546.58 652.691 504.621 652.691 504.621C652.691 504.621 675.048 484.022 684.486 483.658C684.486 483.658 672.842 522.041 677.58 520.325C682.321 518.605 695.734 479.471 695.734 479.471C695.734 479.471 719.548 468.674 725.251 488.663C730.957 508.654 725.535 520.12 722.036 522.052Z" fill="#D2E0FF"/>
<path d="M714.656 497.125C677.122 527.042 662.076 548.516 656.476 562.608L652.004 562.637C664.003 531.277 713.39 497.974 714.656 497.125Z" fill="#D2E0FF"/>
<path d="M332.348 281.622C332.348 281.622 339.865 261.443 358.003 263.559C358.003 263.559 384.219 229.835 412.382 258.727C412.382 258.727 442.199 251.323 464.34 264.62C479.102 273.484 484.001 282.853 484.001 282.853L332.348 281.622Z" fill="#F8FCFF"/>
<path d="M411.324 220.733C411.324 220.733 417.108 205.228 431.061 206.854C431.061 206.854 451.23 180.937 472.896 203.137C472.896 203.137 495.833 197.45 512.867 207.667C524.222 214.477 527.991 221.676 527.991 221.676L411.324 220.733Z" fill="#F8FCFF"/>
<path d="M285.701 512.379L285.523 450.856L285.096 323.945L253.434 324.15L254.215 563.669V564.688L285.877 564.486V563.468L285.701 512.379ZM343.196 323.538L285.523 450.856L272.446 479.709L277.207 529.474L285.701 512.379L309.935 463.628L330.157 423.022L379.727 323.283L343.196 323.538ZM387.118 562.806L330.157 423.022L328.024 417.78L301.443 442.611L309.935 463.628L350.162 563.061L350.589 564.076L387.545 563.824L387.118 562.806Z" fill="#6980E2"/>
<path d="M601.931 485.102C600.19 496.146 596.956 504.694 592.196 510.648C587.432 516.652 581.606 519.653 574.675 519.703C565.721 519.754 558.827 515.94 553.958 508.256C549.054 500.571 546.602 489.681 546.567 475.586L546.353 409.535C546.283 395.439 548.7 384.449 553.531 376.663C558.33 368.878 565.223 364.91 574.177 364.856C578.692 364.806 582.815 366.281 586.473 369.234C590.133 372.184 593.261 376.458 595.821 382.006C598.378 387.553 600.333 394.371 601.647 402.411L634.483 402.156C632.35 384.654 628.549 369.691 623.074 357.326C617.603 344.962 610.709 335.547 602.393 329.085C594.115 322.671 584.626 319.465 574.001 319.519C561.136 319.62 550.192 323.232 541.165 330.355C532.139 337.432 525.28 347.71 520.554 361.143C515.794 374.577 513.485 390.809 513.52 409.79L513.731 475.791C513.804 494.873 516.256 511.055 521.052 524.387C525.886 537.666 532.814 547.793 541.912 554.765C545.786 557.715 549.308 560.899 553.893 562.525C556.948 563.694 560.887 563.72 564.299 564.23L584.199 564.076C587.221 563.518 590.133 562.651 592.907 561.432C596.459 559.957 599.871 557.971 603.069 555.528C611.312 549.218 618.1 540.109 623.502 528.154C628.903 516.192 632.634 501.791 634.732 484.9L601.931 485.102Z" fill="#6980E2"/>
<path d="M518.319 322.365L485.164 322.621L453.361 426.378L420.917 323.031L387.762 323.232L437.689 470.65L437.973 562.45V563.468L469.635 563.263V562.245L469.352 470.445L518.319 322.365Z" fill="#6980E2"/>
<path d="M267.008 211.566C267.008 211.566 261.192 210.199 257.52 214.211C253.848 218.222 253.254 216.938 251.182 219.413C249.11 221.888 251.249 224.806 250.108 226.457C248.967 228.105 248.932 231.27 250.636 232.08C252.339 232.889 251.207 237.354 254.894 237.915C258.581 238.476 256.938 240.93 260.434 241.279C263.929 241.628 266.821 241.779 268.667 242.873C270.513 243.966 272.179 242.815 272.699 240.804C273.219 238.789 274.702 241.372 275.123 238.62C275.544 235.872 274.005 234.8 274.857 232.566C275.71 230.331 277.784 214.488 267.008 211.566Z" fill="#233862"/>
<path d="M277.578 371.249C277.178 371.918 277.133 372.663 277.34 373.451L277.344 373.461C277.726 374.922 278.963 376.537 280.397 378.149C280.581 378.354 280.744 378.545 280.887 378.717C280.925 378.764 280.963 378.811 280.995 378.854C281.026 378.89 281.053 378.93 281.081 378.962C282.42 380.689 281.925 381.099 284.337 384.61C287.085 388.611 288.954 388.65 289.485 388.273C289.932 387.952 289 385.823 287.967 383.427C287.917 383.311 287.867 383.196 287.816 383.078C287.678 382.761 287.543 382.437 287.404 382.117C286.193 379.232 286.487 377.865 286.734 373.54C286.935 370.029 290.389 353.869 290.389 353.869L285.173 352.671C285.173 352.671 283.711 365.518 282 367.522C281.086 368.59 280.052 368.619 279.171 369.414C279.109 369.472 279.048 369.526 278.988 369.583C278.488 370.072 277.978 370.576 277.578 371.249Z" fill="#FFB27D"/>
<path d="M277.578 371.249C277.178 371.918 277.133 372.663 277.34 373.45L277.344 373.461C277.809 374.918 279.015 376.526 280.403 378.135C280.583 378.343 280.744 378.537 280.887 378.717C280.925 378.764 280.963 378.811 280.995 378.854C281.026 378.89 281.053 378.93 281.081 378.962C282.42 380.689 281.925 381.099 284.337 384.61C287.085 388.611 288.954 388.65 289.484 388.273C289.932 387.952 289 385.823 287.967 383.427C287.434 383.157 284.967 381.772 283.083 378.401C281.485 375.548 280.385 371.896 279.295 369.662C279.177 369.633 279.106 369.615 278.988 369.583C278.488 370.072 277.978 370.576 277.578 371.249Z" fill="#233862"/>
<path d="M319.499 365.892C319.841 368.184 322.127 367.763 324.677 366.824C327.23 365.888 326.629 366.961 330.265 366.324C333.903 365.687 334.988 363.723 335.093 362.946C335.186 362.259 333.385 362.043 331.453 361.758C331.212 361.722 330.968 361.683 330.722 361.647C328.541 361.291 326.928 359.305 324.936 357.682C323.049 356.15 320.2 349.815 320.2 349.815L315.211 350.466C315.211 350.466 317.879 356.121 318.912 358.582C319.52 360.028 319.504 361.956 319.442 363.446C319.409 364.255 319.379 365.083 319.499 365.892Z" fill="#FFB27D"/>
<path d="M324.675 366.824C327.227 365.888 326.627 366.961 330.262 366.324C333.9 365.687 334.985 363.723 335.091 362.946C335.184 362.259 333.383 362.043 331.451 361.758L331.433 361.812C331.433 361.812 329.27 364.065 326.24 364.219C323.77 364.345 321.145 363.377 319.439 363.446C319.407 364.255 319.376 365.083 319.497 365.892C319.839 368.184 322.125 367.763 324.675 366.824Z" fill="#233862"/>
<path d="M299.992 320.494L295.47 338.557L289.569 362.143C289.569 362.143 287.918 362.398 286.328 361.772C284.865 361.193 283.18 359.642 283.18 359.642C283.18 359.642 284.667 334.398 287.704 319.871C288.483 316.144 289.365 313.122 290.35 311.417C295.176 303.053 299.992 320.494 299.992 320.494Z" fill="#ED7D2B"/>
<path d="M295.015 292.012C292.35 290.828 285.509 291.141 278.006 293.217C275.933 293.789 273.745 293.476 272.629 290.911L253.688 289.109C253.688 289.109 247.821 307.931 251.128 321.62C251.769 324.279 254.801 324.35 254.802 324.354C254.802 324.354 265.895 324.451 269.552 324.39C278.962 324.235 289.393 314.795 290.749 314.382C292.968 313.709 293.91 320.066 296.188 326.718C298.467 333.37 317.34 355.991 317.34 355.991C317.34 355.991 320.211 355.984 321.394 355.326C322.663 354.621 323.123 353.721 323.123 353.721C323.123 353.721 301.937 295.081 295.015 292.012Z" fill="#F99746"/>
<path d="M266.527 249.165C266.557 249.193 263.225 250.884 260.977 249.503C258.862 248.208 257.227 243.275 257.258 243.272C258.215 243.193 259.256 241.977 260.001 234.101L260.411 234.303L267.293 237.721C267.293 237.721 266.822 240.879 266.525 243.88C266.275 246.402 266.15 248.816 266.527 249.165Z" fill="#FFB27D"/>
<path d="M267.292 237.721C267.292 237.721 267.006 239.933 266.61 243.096C262.665 242.146 260.989 237.343 260.41 234.303L267.292 237.721Z" fill="#ED975D"/>
<path d="M268.338 240.83C268.338 240.83 258.947 239.186 259.752 230.825C260.558 222.464 259.888 216.625 265.918 217.319C271.948 218.017 272.804 221.439 273.009 224.32C273.214 227.206 270.802 241.042 268.338 240.83Z" fill="#FFB27D"/>
<path d="M272.632 219.751C272.632 219.751 266.69 227.259 262.612 227.925C258.534 228.59 256.973 226.741 256.973 226.741C256.973 226.741 259.356 223.838 260.766 219.197C261.182 217.83 262.076 216.88 263.113 216.733C266.026 216.326 271.551 216.067 272.632 219.751Z" fill="#233862"/>
<path d="M268.871 219.151C268.871 219.151 270.902 221.899 271.551 223.95C272.178 225.928 272.399 230.688 271.929 232.584C271.929 232.584 274.987 223.82 273.18 219.618C271.266 215.161 268.871 219.151 268.871 219.151Z" fill="#233862"/>
<path d="M274.582 268.815C274.521 295.998 274.68 290.314 272.625 292.929C272.129 293.559 270.726 293.951 268.876 294.16C263.061 294.807 252.818 293.606 252.417 292.073C251.031 286.767 251.965 285.094 250.778 276.952C250.655 276.089 250.503 275.15 250.324 274.132C249.345 268.545 248.42 266.653 251.66 257.594C254.598 249.388 257.665 242.718 257.948 242.952C265.93 249.557 266.523 243.883 266.523 243.883C266.523 243.883 274.613 255.554 274.582 268.815Z" fill="#8C9DF4"/>
<path d="M295.47 338.557L289.569 362.143C289.569 362.143 287.918 362.398 286.328 361.772C284.865 361.193 283.18 359.642 283.18 359.642C283.18 359.642 284.667 334.398 287.704 319.871L295.47 338.557Z" fill="#F99746"/>
<path d="M266.523 243.88C266.523 243.88 274.696 245.725 275.695 250.737C276.694 255.752 282.571 285.22 282.571 285.22C282.571 285.22 278.434 286.357 276.496 283.644C274.558 280.935 269.623 258.306 269.623 258.306L266.523 243.88Z" fill="#8C9DF4"/>
<path d="M268.879 294.16C263.064 294.807 252.821 293.606 252.42 292.073C251.034 286.767 251.968 285.094 250.781 276.952L253.496 265.588C253.496 265.588 253.135 278.201 255.758 281.471C258.378 284.745 266.438 287.695 267.723 290.443C268.343 291.764 268.754 293.088 268.879 294.16Z" fill="#6980E2"/>
<path d="M262.168 288.968C262.168 288.968 267.895 287.04 268.827 287.756C269.76 288.468 272.046 291.087 272.337 292.008C272.628 292.929 270.268 291.343 269.503 291.062C269.007 290.878 267.712 291.548 267.07 291.868C264.371 293.206 262.705 292.569 262.705 292.569L262.168 288.968Z" fill="#FFB27D"/>
<path d="M257.943 242.945C257.943 242.945 250.239 243.754 247.613 249.129C243.917 256.698 236.725 288.799 241.031 292.994C245.881 297.718 262.935 293.883 262.935 293.883C262.935 293.883 263.472 290.069 262.666 288.242C261.86 286.414 248.983 283.658 248.382 282.817C247.782 281.978 255.663 266.127 255.642 263.58C255.621 261.033 257.943 242.945 257.943 242.945Z" fill="#8C9DF4"/>
<path d="M269.121 290.04C269.121 290.04 270.343 292.242 270.739 292.501C271.136 292.76 271.39 292.688 271.39 292.688L270.562 290.612L269.121 290.04Z" fill="#FFB27D"/>
<path d="M268.824 287.756L272.342 290.131C272.342 290.131 272.196 290.48 271.765 290.458C271.334 290.44 270.243 289.89 270.243 289.89L268.824 287.756Z" fill="#FFB27D"/>
<path d="M270.004 294.325L297.672 293.861L305.754 264.084L278.128 264.548L270.004 294.325Z" fill="#233862"/>
<path d="M297.987 292.702L261.449 293.314L261.459 294.469L297.671 293.861L297.987 292.702Z" fill="#233862"/>
<path d="M290.567 279.158C290.768 278.114 290.341 277.276 289.612 277.29C288.884 277.301 288.132 278.157 287.931 279.204C287.733 280.248 288.16 281.086 288.886 281.075C289.615 281.061 290.366 280.204 290.567 279.158Z" fill="#EBF3FA"/>
<path d="M543.195 561.985C543.195 561.985 543.183 557.996 543.62 556.665C544.055 555.337 545.652 549.923 545.652 549.923L551.963 549.883C551.963 549.883 553.152 554.801 553.232 556.413C553.31 558.021 553.25 561.917 553.25 561.917L543.195 561.985Z" fill="#1B3051"/>
<path d="M579.329 561.781C579.329 561.781 579.316 557.791 578.914 556.467C578.512 555.143 577.04 549.754 577.04 549.754L571.35 549.79C571.35 549.79 570.307 554.726 570.247 556.337C570.184 557.949 570.264 561.842 570.264 561.842L579.329 561.781Z" fill="#1B3051"/>
<path d="M555.808 338.014C555.808 338.014 555.634 346.9 554.856 350.887L548.59 357.204L572.263 362.118L566.586 350.991C566.586 350.991 564.842 339.094 565.721 334.679C566.601 330.269 555.808 338.014 555.808 338.014Z" fill="#FFB27D"/>
<path d="M555.777 339.241C555.777 339.241 557.669 345.677 561.191 345.512C564.714 345.346 565.497 339.637 565.497 339.637L555.777 339.241Z" fill="#ED985F"/>
<path d="M553.656 334.035C553.656 334.035 552.49 325.908 551.689 323.451C550.887 320.99 550.189 310.003 558.99 309.377C558.99 309.377 562.366 309.924 564.213 308.302C564.213 308.302 564.218 309.91 563.758 310.482C563.758 310.482 566.798 309.421 569.192 313.194C571.586 316.968 567.66 330.261 567.868 333.388L553.656 334.035Z" fill="#2C3A64"/>
<path d="M560.779 343.022C558.227 342.975 553.511 338.14 553.491 332.111L553.461 322.703C553.453 320.501 554.521 318.695 555.83 318.684L565.571 318.62C566.882 318.612 567.96 320.404 567.967 322.606L567.995 331.481C568.015 337.802 563.709 343.08 560.779 343.022Z" fill="#FFB27D"/>
<path d="M553.478 327.726C553.478 327.726 553.473 322.074 556.595 321.185C559.718 320.293 566.728 323.873 567.707 319.743C568.687 315.616 554.169 315.782 553.445 318.419C552.724 321.052 553.478 327.726 553.478 327.726Z" fill="#2C3A64"/>
<path d="M543.462 423.856C543.462 423.856 544.598 467.387 543.191 492.239C541.782 517.091 543.394 551.65 543.394 551.65C543.394 551.65 548.168 555.377 553.316 551.585C553.316 551.585 558.823 503.557 558.747 492.135C558.672 479.971 564.694 425.616 564.694 425.616L543.462 423.856Z" fill="#2B478B"/>
<path d="M579.092 551.412C579.092 551.412 574.344 555.203 569.171 551.476C569.171 551.476 563.355 503.524 563.353 492.102C563.353 486.968 562.217 474.315 560.903 461.418C559.105 443.775 556.977 425.665 556.977 425.665L579.02 423.546C579.02 423.546 577.341 467.171 578.912 492.001C580.482 516.832 579.092 551.412 579.092 551.412Z" fill="#2B478B"/>
<path d="M563.352 492.103C563.352 486.969 562.216 474.316 560.902 461.419C562.196 453.702 565.389 446.259 565.389 446.259C569.512 462.577 563.352 492.103 563.352 492.103Z" fill="#233862"/>
<path d="M586.302 403.112C584.395 409.584 581.119 418.542 580.272 420.942C580.267 412.883 579.566 401.511 579.247 393.082C579.142 390.308 579.031 387.729 578.918 385.322C584.186 391.341 589.013 393.917 586.302 403.112ZM598.162 391.971C590.394 365.154 576.589 351.397 566.583 350.991C564.399 355.182 562.827 356.164 560.824 357.311C557.591 356.693 554.853 351.016 554.853 350.886C551.33 351.426 535.468 354.084 524.795 391.582C523.964 394.507 523.823 401.447 527.677 408.257C530.418 413.103 534.709 419.413 541.356 426.82C541.356 426.82 541.975 424.903 542.535 421.802C542.535 421.802 538.563 410.858 536.169 403.447C535.005 399.839 533.646 395.708 542.268 387.215C542.512 396.637 543.608 407.796 542.796 417.888C541.713 431.35 543.62 431.098 543.62 431.098C543.62 431.098 546.185 431.799 549.765 432.458C553.004 433.055 557.069 433.616 560.809 433.591C569.384 433.533 578.775 430.864 578.775 430.864C579.802 430.878 580.197 427.536 580.262 422.593C580.775 425.065 581.267 426.554 581.267 426.554C587.864 419.06 592.115 412.693 594.824 407.814C598.635 400.95 599.007 394.885 598.162 391.971Z" fill="#F9DDBF"/>
<path d="M555.175 348.717C555.175 348.717 553.565 349.476 553.273 351.181C553.273 351.181 558.067 357.236 560.825 357.312L555.175 348.717Z" fill="#F99746"/>
<path d="M560.828 357.312L566.237 348.328C566.237 348.328 567.928 349.379 567.918 351.12C567.918 351.12 563.167 357.535 560.828 357.312Z" fill="#F99746"/>
<path d="M559.844 356.661C559.844 356.661 555.857 407.998 557.324 414.244C558.078 417.46 559.083 420.237 559.882 422.176C560.455 423.572 561.869 423.558 562.427 422.151C563.522 419.403 564.949 415.427 564.942 413.416C564.932 410.157 561.608 356.607 561.608 356.607L559.844 356.661Z" fill="#F99746"/>
<path d="M558.75 354.153C558.75 354.153 561.258 353.775 562.785 353.987C563.089 354.031 563.26 354.502 563.112 354.887C562.687 355.991 561.82 357.909 560.908 357.916C559.624 357.923 557.612 354.286 558.75 354.153Z" fill="#F99746"/>
<path d="M558.727 336.978C558.727 336.978 559.525 338.514 560.915 338.449C562.304 338.384 562.952 336.949 562.952 336.949C562.952 336.949 560.606 336.413 558.727 336.978Z" fill="white"/>
<path d="M541.752 422.349C541.752 422.349 544.812 418.359 546.774 420.23C548.849 422.209 549.782 425.141 548.621 425.353C547.485 425.558 543.945 424.986 543.616 425.749C543.287 426.508 541.81 427.965 541.355 426.817C540.903 425.669 541.752 422.349 541.752 422.349Z" fill="#FFB27D"/>
<path d="M542.537 421.802C541.977 424.903 541.359 426.82 541.359 426.82C534.712 419.413 530.421 413.103 527.68 408.257C529.735 408.027 532.729 406.954 536.171 403.447C538.566 410.858 542.537 421.802 542.537 421.802Z" fill="#FFB27D"/>
<path d="M580.843 422.089C580.843 422.089 578.21 418.632 575.919 420.97C574.64 422.276 573.748 425.712 574.874 425.421C575.997 425.129 578.667 424.755 579.001 425.511C579.333 426.266 580.549 427.378 581.267 426.554C582.144 425.547 580.843 422.089 580.843 422.089Z" fill="#FFB27D"/>
<path d="M580.055 421.554C580.635 424.644 581.268 426.555 581.268 426.555C587.865 419.061 592.114 412.693 594.825 407.815C592.77 407.606 589.767 406.577 586.303 403.113C583.956 410.556 580.055 421.554 580.055 421.554Z" fill="#FFB27D"/>
<path d="M404.257 335.521C401.026 334.006 398.8 335.956 398.8 335.956C389.517 336.564 388.603 352.401 389.326 357.603C390.048 362.808 391.11 368.331 387.822 376.087C378.325 398.486 403.029 393.571 403.029 393.571C401.438 377.832 415.231 380.469 414.836 382.196C432.337 384.027 411.603 338.96 404.257 335.521Z" fill="#163560"/>
<path d="M394.847 403.58C394.847 403.58 393.976 406.088 392.383 408.973C390.466 412.445 380.316 404.3 381.185 403.67C382.057 403.041 387.074 382.02 388.278 379.376C389.481 376.732 393.604 375.336 393.604 375.336L394.847 403.58Z" fill="#F9DDBF"/>
<path d="M429.467 544.889C429.467 544.889 432.273 548.523 431.738 551.12C431.2 553.718 428.685 555.466 428.354 558.639C428.024 561.812 426.665 563.55 425.439 563.557C424.213 563.568 419.591 563.597 419.591 563.597C419.591 563.597 418.681 561.373 420.859 560.686C423.038 559.999 423.849 556.265 423.701 552.808C423.553 549.35 423.879 544.735 423.879 544.735L428.507 543.166L429.467 544.889Z" fill="#2B478B"/>
<path d="M405.822 546.599C405.822 546.599 406.878 562.061 405.654 562.932L389.957 562.989C389.957 562.989 389.947 560.395 392.467 559.802C394.987 559.208 399.411 557.068 400.144 552.351C400.878 547.638 405.822 546.599 405.822 546.599Z" fill="#2B478B"/>
<path d="M416.65 435.552C413.387 425.198 411.399 422.234 411.766 419.014C412.04 416.614 410.769 374.335 410.769 374.335C410.384 374.166 409.616 374.019 409.194 373.889C407.867 373.476 406.767 372.152 406.304 370.324C405.747 368.122 405.3 364.87 405.297 360.79L404.882 360.909L397.931 362.927C397.931 362.927 398.102 366.065 398.114 369.018V369.09C398.132 371.655 396.964 373.929 395.245 374.652C394.368 375.019 393.605 375.335 393.605 375.335C393.605 375.335 391.082 385.797 390.63 396.532C390.175 407.264 395.326 411.894 390.711 433.368C385.997 455.299 418.454 441.272 416.65 435.552Z" fill="#FFB27D"/>
<path d="M397.934 362.928C397.934 362.928 398.104 366.065 398.117 369.019C402.011 368.835 404.051 363.734 404.885 360.91L397.934 362.928Z" fill="#E8945B"/>
<path d="M397.527 367.097C397.527 367.097 406.642 365.176 405.719 357.067C404.795 348.954 405.35 343.245 399.491 344.13C393.633 345.011 392.856 348.371 392.706 351.185C392.552 353.998 395.13 367.388 397.527 367.097Z" fill="#FFB27D"/>
<path d="M395.328 344.903C395.328 344.903 398.908 353.833 402.888 354.34C406.87 354.851 408.357 352.994 408.357 352.994C408.357 352.994 405.046 350.35 403.772 344.677C403.772 344.677 396.687 339.935 395.328 344.903Z" fill="#163560"/>
<path d="M396.037 345.53C396.037 345.53 394.304 346.954 393.766 349.059C393.238 351.117 392.892 353.764 393.389 356.79C393.389 356.79 390.774 350.768 392.462 346.613C394.251 342.209 396.037 345.53 396.037 345.53Z" fill="#163560"/>
<path d="M417.402 392.997C417.402 392.997 417.651 397.72 417.437 403.386C417.294 407.146 414.656 412.193 414.284 413.442C413.35 416.571 412.284 417.086 412.284 417.086L404.051 420.032L401.157 421.068L392.005 417.219C392.005 417.219 387.789 400.609 389.43 391.234C391.07 381.855 393.603 375.336 393.603 375.336C393.603 375.336 401.095 385.74 410.769 374.336L417.402 392.997Z" fill="#F9DDBF"/>
<path d="M418.223 403.516C418.08 407.272 414.658 412.193 414.286 413.441C413.351 416.571 412.286 417.086 412.286 417.086L404.053 420.032L401.84 415.607C401.84 415.607 415.165 410.204 412.585 393.374L418.223 403.516Z" fill="#F2CCAA"/>
<path d="M392.596 419.74C392.596 419.74 388.134 439.944 387.865 446.812C387.596 453.683 396.834 544.325 397.203 547.487C397.553 550.469 400.145 552.351 400.145 552.351C400.145 552.351 401.339 553.351 403.034 552.653C405.386 551.685 406.127 550.538 406.127 550.538C406.127 550.538 409.441 485.828 407.187 462.735C404.931 439.642 404.841 419.658 404.841 419.658L392.596 419.74Z" fill="#ED7D2B"/>
<path d="M411.768 419.014C411.768 419.014 418.717 432.231 419.388 441.193C420.061 450.155 420.529 481.651 421.928 490.383C423.327 499.114 428.42 515.904 428.508 543.166C428.508 543.166 427.99 544.735 426.377 545.577C425.86 545.847 425.169 546.109 424.496 546.336C423.164 546.782 421.792 545.857 421.179 544.105C417.74 534.309 406.789 502.708 406.211 496.139C405.804 491.487 402.277 460.717 394.747 442.7C392.938 438.372 395.777 421.104 395.777 421.104L411.768 419.014Z" fill="#F99746"/>
<path d="M398.754 361.866C398.754 361.866 398.706 362.859 397.03 363.1C397.03 363.1 395.621 363.305 395.543 362.244C395.543 362.244 396.809 361.179 398.754 361.866Z" fill="white"/>
<path d="M391.864 416.632C391.864 416.632 393.688 418.679 397.298 418.758C401.609 418.852 412.286 417.085 412.286 417.085C412.286 417.085 412.766 418.981 412.753 420.985C412.753 420.985 399.722 425.784 392.15 421.809C392.15 421.809 391.165 419.19 391.864 416.632Z" fill="#ED7D2B"/>
<path d="M396.26 418.643C395.534 418.646 394.949 419.661 394.952 420.906C394.957 422.147 395.549 423.154 396.276 423.151C396.999 423.147 397.587 422.132 397.582 420.888C397.579 419.643 396.984 418.636 396.26 418.643ZM396.278 424.086C395.193 424.093 394.306 422.668 394.301 420.909C394.293 419.15 395.173 417.715 396.258 417.707C397.341 417.7 398.228 419.125 398.235 420.884C398.24 422.64 397.363 424.079 396.278 424.086Z" fill="white"/>
<path d="M405.723 429.821L386.115 430.213L376.359 397.802L395.968 397.41L405.723 429.821Z" fill="#163560"/>
<path d="M403.112 415.165L401.668 412.643C401.668 412.643 400.69 411.409 399.984 411.2C399.278 410.995 397.784 409.776 397.64 410.121C397.497 410.47 398.794 412.934 398.794 412.934L398.859 412.949C397.384 414.553 393.641 413.172 393.184 413.823C392.626 414.614 393.96 416.312 394.676 417.262C395.392 418.215 397.437 419.798 399.025 419.079C400.185 418.554 402.012 418.014 402.012 418.014L403.112 415.165Z" fill="#FFB27D"/>
<path d="M377.85 403.508C377.85 403.508 379.076 401.493 379.865 402.45C380.652 403.407 379.677 408.149 378.928 407.67C378.179 407.195 377.423 404.098 377.85 403.508Z" fill="#FFB27D"/>
<path d="M410.769 374.335C410.769 374.335 417.309 374.947 419.844 383.656C422.379 392.366 427.089 410.941 427.097 413.405C427.104 415.869 422.002 424.971 401.898 418.093C401.898 418.093 401.205 415.337 402.544 413.934C402.544 413.934 416.52 407.404 416.492 406.123C416.439 403.702 414.588 401.623 406.732 390.474C404.596 387.445 410.769 374.335 410.769 374.335Z" fill="#F9DDBF"/>
<path d="M298.305 564.402L326.157 564.219C327.644 562.395 325.104 558.294 322.466 558.035C321.318 557.919 319.871 558.272 318.218 558.783C317.811 551.494 315.515 518.738 307.269 520.112C297.999 521.645 307.317 534.542 309.965 542.198C311.924 547.868 314 556.002 314.949 559.841C314.196 560.078 313.417 560.312 312.623 560.528C311.374 555.131 306.742 536.982 300.928 538.079C294.102 539.363 296.871 546.634 301.727 550.929C305.287 554.088 309.663 558.581 311.744 560.754C309.987 561.175 308.156 561.463 306.297 561.416C301.526 561.283 299.205 563.312 298.305 564.402Z" fill="#D2E0FF"/>
<path d="M507.596 563.014L484.26 563.169C483.004 561.658 485.109 558.193 487.317 557.945C488.279 557.837 489.493 558.118 490.882 558.528C491.184 552.416 492.93 524.945 499.846 526.002C507.622 527.186 499.884 538.094 497.708 544.537C496.095 549.307 494.402 556.15 493.626 559.377C494.259 559.568 494.912 559.755 495.58 559.928C496.595 555.391 500.379 540.13 505.258 540.986C510.983 541.986 508.702 548.109 504.657 551.765C501.69 554.448 498.047 558.262 496.319 560.107C497.791 560.438 499.326 560.661 500.884 560.6C504.881 560.438 506.838 562.111 507.596 563.014Z" fill="#D2E0FF"/>
<path d="M264.432 556.754C264.054 557.103 263.668 557.442 263.276 557.765C263.144 557.877 263.011 557.988 262.878 558.093C262.574 558.337 262.271 558.575 261.964 558.805C247.282 569.756 229.029 562.352 220.606 541.652C212.572 521.905 216.301 496.977 228.725 483.536C229.716 482.464 230.761 481.464 231.861 480.547C232.255 480.219 232.654 479.903 233.054 479.601C233.443 479.309 233.835 479.025 234.23 478.759C235.438 477.939 236.668 477.241 237.912 476.661C239.762 475.794 241.644 475.186 243.533 474.838C249.395 473.747 255.333 475.082 260.636 478.575C266.263 482.285 271.176 488.418 274.531 496.664C282.978 517.426 278.423 543.907 264.432 556.754Z" fill="#21B371"/>
<path d="M223.873 362.003C223.966 361.453 215.579 367.497 215.155 368.177C211.233 374.465 212.383 382.632 214.64 382.697C216.086 382.736 215.817 386.183 215.817 386.183L231.904 376.311C231.904 376.311 229.911 360.118 223.873 362.003Z" fill="#2C3A64"/>
<path d="M225.862 363.255C225.862 363.255 221.833 352.947 213.29 358.84C208.773 361.956 208.459 375.681 206.675 378.037C202.682 383.315 201.029 385.247 201.763 394.14C202.497 403.037 221.903 414.063 220.797 421.435C220.797 421.435 228.711 407.375 222.311 398.716C219.903 395.46 217.227 387.563 217.479 386.171C217.731 384.775 225.862 363.255 225.862 363.255Z" fill="#2C3A64"/>
<path d="M219.628 405.598C218.523 398.144 211.761 395.874 208.584 401.99C208.013 403.087 207.613 404.386 207.486 405.915C206.784 414.387 216.35 448.816 217.714 451.928C220.198 457.598 234.776 476.992 234.776 476.992L237.444 474.65C237.444 474.65 227.067 449.758 225.465 447.434C223.613 444.747 221.728 419.747 219.628 405.598Z" fill="#ED985F"/>
<path d="M233.75 474.686C233.75 474.686 237.643 470.988 239.121 471.215C240.6 471.441 244.884 473.175 244.939 474.078C244.994 474.978 240.177 475.571 239.855 476.064C239.533 476.56 236.271 479.708 235.082 478.737C233.893 477.762 233.75 474.686 233.75 474.686Z" fill="#ED985F"/>
<path d="M206.787 557.801L203.297 557.088C203.297 557.088 191.526 543.821 189.699 518.929C189.512 516.396 189.467 513.824 189.59 511.23C189.605 510.931 189.581 510.633 189.466 510.381L189.462 510.374C189.084 509.554 188.143 507.496 186.869 504.567C185.613 501.686 183.461 496.232 181.094 490.109C176.829 479.089 171.863 465.904 170.161 461.706C164.737 448.326 167.301 439.289 167.301 439.289C167.301 439.289 182.305 437.062 186.402 431.885L187.893 435.145C187.893 435.145 191.212 455.741 191.059 455.838C191.222 456.536 191.387 457.248 191.554 457.975C194.158 469.304 197.156 483.46 198.803 494.998C199.728 501.491 200.226 507.147 199.981 511.007C199.897 512.331 200.011 514.364 200.265 516.871C201.766 531.661 206.787 557.801 206.787 557.801Z" fill="#2B478B"/>
<path d="M214.122 564.072L199.57 564.169C199.57 564.169 199.211 560.996 199.963 558.582C200.684 556.261 201.722 556.182 200.076 552.57C201.005 553.927 203.98 554.47 206.082 554.052C206.342 554.65 207.759 558.654 208.623 559.535C209.577 560.507 213.816 560.129 214.122 564.072Z" fill="#6980E2"/>
<path d="M191.554 457.976C190.316 468.024 187.367 484.753 181.094 490.109C176.829 479.09 171.863 465.905 170.161 461.706C164.737 448.327 167.301 439.29 167.301 439.29C167.301 439.29 182.305 437.063 186.402 431.886L187.893 435.146C187.893 435.146 191.212 455.742 191.059 455.839C191.221 456.537 191.387 457.249 191.554 457.976Z" fill="#233862"/>
<path d="M218.057 400.979C218.057 400.979 220.047 403.929 220.277 410.347C220.277 410.347 217.837 421.212 210.172 422.957C210.172 422.957 216.17 400.987 218.057 400.979Z" fill="#ED7D2B"/>
<path d="M181.291 440.747L181.327 436.851C175.908 437.865 162.6 427.695 162.6 427.695C162.6 427.695 156.945 433.135 156.218 448.572C155.863 456.105 153.568 487.972 153.334 497.485C153.248 500.931 153.224 503.392 153.216 504.374L153.217 504.385C153.215 504.683 153.118 504.949 152.989 505.191C151.874 507.238 150.908 509.407 150.072 511.659C141.869 533.759 146.293 563.684 146.293 563.684L148.212 562.971C148.212 562.971 155.108 531.874 159.637 518.412C160.406 516.127 161.105 514.35 161.692 513.321C163.401 510.317 165.198 505.226 166.965 499.103C170.306 487.526 173.536 472.258 175.836 460.437C176.001 460.48 181.291 440.747 181.291 440.747Z" fill="#2B478B"/>
<path d="M212.941 414.524C204.067 411.671 209.672 393.795 210.187 394.104C211.414 393.738 214.102 390.633 216.495 384.585L216.822 384.988L222.289 391.788C222.289 391.788 221.039 394.453 219.989 397.065C219.168 399.109 218.471 401.123 218.585 401.81C219.025 402.303 215.308 415.287 212.941 414.524Z" fill="#FFB27D"/>
<path d="M222.287 391.791C222.287 391.791 221.037 394.453 219.987 397.068C216.592 394.1 216.569 388.1 216.82 384.988L222.287 391.791Z" fill="#ED985F"/>
<path d="M222.449 395.212C222.449 395.212 214.208 388.719 217.112 381.43C220.015 374.145 220.907 368.399 226.291 372.238C231.675 376.077 231.581 379.685 231.025 382.455C230.469 385.225 224.667 396.712 222.449 395.212Z" fill="#FFB27D"/>
<path d="M232.4 378.206C232.013 374.982 230.868 374.68 230.07 374.903C227.012 367.733 222.062 370.572 222.062 370.572C219.428 375.349 215.602 376.188 215.602 376.188C215.602 376.188 216.564 378.724 220.499 380.271C221.7 380.742 223.062 380.444 224.374 379.8C221.654 381.994 218.806 382.847 218.806 382.847C223.987 383.491 228.892 376.681 229.401 375.95C229.643 377.001 230.069 379.195 229.824 380.807C229.49 382.994 228.148 386.962 228.977 387.47C228.977 387.47 232.98 383.041 232.4 378.206Z" fill="#2C3A64"/>
<path d="M157.868 564.446L143.316 564.543C143.316 564.543 142.957 561.366 143.709 558.952C144.43 556.636 145.568 555.578 145.285 552.783C146.214 554.139 147.727 555.657 149.829 555.236C150.089 555.833 151.505 559.028 152.369 559.909C153.323 560.881 157.563 560.503 157.868 564.446Z" fill="#6980E2"/>
<path d="M214.03 428.659C212.161 429.608 209.534 430.137 206.847 430.573C203.023 431.195 199.073 431.63 197.007 432.828C196.254 433.264 195.751 433.8 195.595 434.48C194.711 438.351 190.777 444.337 190.777 444.337C165.433 442.851 162.602 427.695 162.602 427.695C179.558 399.194 208.119 391.917 208.119 391.917C208.119 391.917 213.33 389.697 214.351 395.057C215.537 401.285 218.693 400.831 218.693 400.831C218.693 400.831 219.531 425.871 214.03 428.659Z" fill="#F99746"/>
<path d="M206.844 430.572C203.019 431.195 199.07 431.63 197.004 432.828C196.1 414.736 202.02 401.083 202.02 401.083C202.02 401.083 205.983 423.73 206.844 430.572Z" fill="#ED7D2B"/>
<path d="M210.677 397.525C210.677 397.525 201.091 398.946 200.351 407.875C199.611 416.801 209.692 453.083 211.129 456.364C213.746 462.336 229.109 482.773 229.109 482.773L231.92 480.305C231.92 480.305 220.985 454.079 219.298 451.629C216.648 447.78 213.934 400.594 210.677 397.525Z" fill="#FFB27D"/>
<path d="M200.644 413.239C200.67 413.444 209.508 417.312 215.175 413.146C215.175 413.146 216.329 394.37 209.552 395.435C202.775 396.5 198.769 399.583 198.613 404.235C198.458 408.883 200.644 413.239 200.644 413.239Z" fill="#F99746"/>
<path d="M228.23 480.169C228.23 480.169 231.656 475.621 233.141 475.506C234.626 475.388 239.049 476.111 239.204 476.985C239.36 477.863 234.673 479.561 234.411 480.122C234.149 480.683 231.284 484.547 230.001 483.86C228.718 483.173 228.23 480.169 228.23 480.169Z" fill="#FFB27D"/>
<path d="M235.442 539.982C234.783 539.173 234.324 538.065 234.154 536.82L230.526 510.248C230.114 507.23 231.489 504.301 233.598 503.711C235.707 503.121 237.751 505.089 238.163 508.111L240.835 527.675L266.765 510.263C268.71 508.957 271.028 510.155 271.939 512.943C272.852 515.727 272.014 519.048 270.068 520.354L239.625 540.795C238.539 541.522 237.281 541.493 236.212 540.716C235.933 540.515 235.675 540.266 235.442 539.982Z" fill="white"/>
</g>
<defs>
<clipPath id="clip0">
<rect width="753.694" height="719.516" fill="white" transform="translate(13.3047)"/>
</clipPath>
</defs>
</svg>
