<svg width="121" height="37" viewBox="0 0 121 37" fill="none" xmlns="http://www.w3.org/2000/svg">
<path d="M77.4775 31.2539C75.6156 31.2539 74.1006 30.6445 72.9326 29.4258C71.7646 28.1986 71.1807 26.5609 71.1807 24.5127V24.0811C71.1807 22.7184 71.4388 21.5039 71.9551 20.4375C72.4798 19.3626 73.2077 18.5247 74.1387 17.9238C75.0781 17.3145 76.0938 17.0098 77.1855 17.0098C78.9714 17.0098 80.3594 17.598 81.3496 18.7744C82.3398 19.9508 82.835 21.6351 82.835 23.8271V24.8047H73.5293C73.5632 26.1589 73.9567 27.2549 74.71 28.0928C75.4717 28.9222 76.4365 29.3369 77.6045 29.3369C78.4339 29.3369 79.1364 29.1676 79.7119 28.8291C80.2874 28.4906 80.791 28.042 81.2227 27.4834L82.6572 28.6006C81.5062 30.3695 79.7796 31.2539 77.4775 31.2539ZM77.1855 18.9395C76.2376 18.9395 75.4421 19.2865 74.7988 19.9805C74.1556 20.666 73.7578 21.6309 73.6055 22.875H80.4863V22.6973C80.4186 21.5039 80.097 20.5814 79.5215 19.9297C78.946 19.2695 78.1673 18.9395 77.1855 18.9395ZM92.2041 19.3711C91.8486 19.3118 91.4635 19.2822 91.0488 19.2822C89.5085 19.2822 88.4632 19.9382 87.9131 21.25V31H85.5645V17.2637H87.8496L87.8877 18.8506C88.6579 17.6234 89.7497 17.0098 91.1631 17.0098C91.6201 17.0098 91.9671 17.069 92.2041 17.1875V19.3711ZM96.9268 31H94.5781V17.2637H96.9268V31ZM94.3877 13.6201C94.3877 13.2393 94.502 12.9176 94.7305 12.6553C94.9674 12.3929 95.3145 12.2617 95.7715 12.2617C96.2285 12.2617 96.5755 12.3929 96.8125 12.6553C97.0495 12.9176 97.168 13.2393 97.168 13.6201C97.168 14.001 97.0495 14.3184 96.8125 14.5723C96.5755 14.8262 96.2285 14.9531 95.7715 14.9531C95.3145 14.9531 94.9674 14.8262 94.7305 14.5723C94.502 14.3184 94.3877 14.001 94.3877 13.6201ZM101.853 31V19.0791H99.6816V17.2637H101.853V15.8545C101.853 14.3818 102.246 13.2435 103.033 12.4395C103.82 11.6354 104.933 11.2334 106.372 11.2334C106.914 11.2334 107.451 11.3053 107.984 11.4492L107.857 13.3535C107.46 13.2773 107.036 13.2393 106.588 13.2393C105.826 13.2393 105.238 13.4635 104.823 13.9121C104.409 14.3522 104.201 14.987 104.201 15.8164V17.2637H107.134V19.0791H104.201V31H101.853ZM114.23 27.5596L117.43 17.2637H119.943L114.421 33.1201C113.566 35.4053 112.208 36.5479 110.346 36.5479L109.901 36.5098L109.025 36.3447V34.4404L109.66 34.4912C110.456 34.4912 111.074 34.3304 111.514 34.0088C111.962 33.6872 112.33 33.099 112.618 32.2441L113.139 30.8477L108.238 17.2637H110.803L114.23 27.5596Z" fill="#424242"/>
<path d="M10.3594 13.4932C9.3099 13.3239 8.46354 13.2393 7.82031 13.2393C6.1276 13.2393 5.28125 14.1279 5.28125 15.9053V17.2637H8.21387V19.0791H5.28125V31H2.93262V19.0791H0.761719V17.2637H2.93262V15.7656C2.94108 14.3014 3.35156 13.18 4.16406 12.4014C4.97656 11.6227 6.13184 11.2334 7.62988 11.2334C8.4847 11.2334 10.1774 11.4915 12.708 12.0078V31H10.3594V13.4932ZM22.2549 31.2539C20.3929 31.2539 18.8779 30.6445 17.71 29.4258C16.542 28.1986 15.958 26.5609 15.958 24.5127V24.0811C15.958 22.7184 16.2161 21.5039 16.7324 20.4375C17.2572 19.3626 17.985 18.5247 18.916 17.9238C19.8555 17.3145 20.8711 17.0098 21.9629 17.0098C23.7487 17.0098 25.1367 17.598 26.127 18.7744C27.1172 19.9508 27.6123 21.6351 27.6123 23.8271V24.8047H18.3066C18.3405 26.1589 18.734 27.2549 19.4873 28.0928C20.249 28.9222 21.2139 29.3369 22.3818 29.3369C23.2113 29.3369 23.9137 29.1676 24.4893 28.8291C25.0648 28.4906 25.5684 28.042 26 27.4834L27.4346 28.6006C26.2835 30.3695 24.557 31.2539 22.2549 31.2539ZM21.9629 18.9395C21.015 18.9395 20.2194 19.2865 19.5762 19.9805C18.9329 20.666 18.5352 21.6309 18.3828 22.875H25.2637V22.6973C25.196 21.5039 24.8743 20.5814 24.2988 19.9297C23.7233 19.2695 22.9447 18.9395 21.9629 18.9395ZM34.9502 22.2783L37.9971 17.2637H40.7393L36.2451 24.0557L40.8789 31H38.1621L34.9883 25.8584L31.8145 31H29.085L33.7188 24.0557L29.2246 17.2637H31.9414L34.9502 22.2783Z" fill="#424242"/>
<path fill-rule="evenodd" clip-rule="evenodd" d="M56.7404 0L59.7406 6.02184L57.4513 10.2923L54.1633 3.75967H43.5496L57.5 31.028L73.2667 0H78L58.651 37H56.0642L37 0H56.7404ZM70.2803 0L57.3448 24.9744L48.194 6.81005H52.5288L57.3448 16.2952L65.9077 0H70.2803Z" fill="#21B371"/>
</svg>
