<svg xmlns="http://www.w3.org/2000/svg" viewBox="0 0 287 72" width="287" height="72">
	<style>
		tspan { white-space:pre }
		.shp0 { fill: #444445 } 
		.shp1 { fill: #21b371 } 
	</style>
	<path id="Layer" fill-rule="evenodd" class="shp0" d="M178.65 56.59C174.35 56.59 170.86 55.18 168.16 52.37C165.47 49.54 164.12 45.76 164.12 41.03L164.12 40.03C164.12 36.89 164.72 34.09 165.91 31.63C167.12 29.14 168.8 27.21 170.94 25.82C173.11 24.42 175.46 23.71 177.98 23.71C182.1 23.71 185.3 25.07 187.59 27.79C189.87 30.5 191.01 34.39 191.01 39.45L191.01 41.7L169.54 41.7C169.62 44.83 170.53 47.36 172.26 49.29C174.02 51.21 176.25 52.16 178.94 52.16C180.86 52.16 182.48 51.77 183.81 50.99C185.13 50.21 186.3 49.17 187.29 47.88L190.6 50.46C187.95 54.54 183.96 56.59 178.65 56.59ZM177.98 28.17C175.79 28.17 173.95 28.97 172.47 30.57C170.98 32.15 170.07 34.38 169.72 37.25L185.59 37.25L185.59 36.84C185.44 34.09 184.69 31.96 183.37 30.45C182.04 28.93 180.24 28.17 177.98 28.17ZM212.63 29.16C211.81 29.03 210.93 28.96 209.97 28.96C206.41 28.96 204 30.47 202.73 33.5L202.73 56L197.31 56L197.31 24.3L202.59 24.3L202.67 27.96C204.45 25.13 206.97 23.71 210.23 23.71C211.29 23.71 212.09 23.85 212.63 24.13L212.63 29.16ZM223.53 56L218.11 56L218.11 24.3L223.53 24.3L223.53 56ZM217.67 15.89C217.67 15.01 217.94 14.27 218.47 13.67C219.01 13.06 219.81 12.76 220.87 12.76C221.92 12.76 222.72 13.06 223.27 13.67C223.82 14.27 224.09 15.01 224.09 15.89C224.09 16.77 223.82 17.5 223.27 18.09C222.72 18.68 221.92 18.97 220.87 18.97C219.81 18.97 219.01 18.68 218.47 18.09C217.94 17.5 217.67 16.77 217.67 15.89ZM234.9 56L234.9 28.49L229.89 28.49L229.89 24.3L234.9 24.3L234.9 21.05C234.9 17.65 235.81 15.02 237.63 13.17C239.44 11.31 242.01 10.38 245.33 10.38C246.58 10.38 247.82 10.55 249.05 10.88L248.76 15.28C247.84 15.1 246.86 15.01 245.83 15.01C244.07 15.01 242.71 15.53 241.76 16.57C240.8 17.58 240.32 19.05 240.32 20.96L240.32 24.3L247.09 24.3L247.09 28.49L240.32 28.49L240.32 56L234.9 56ZM263.46 48.06L270.85 24.3L276.65 24.3L263.9 60.89C261.93 66.17 258.8 68.8 254.5 68.8L253.47 68.71L251.45 68.33L251.45 63.94L252.92 64.06C254.75 64.06 256.18 63.69 257.19 62.94C258.23 62.2 259.08 60.84 259.74 58.87L260.94 55.65L249.64 24.3L255.56 24.3L263.46 48.06Z" />
	<path id="Layer" fill-rule="evenodd" class="shp0" d="M28.48 37.16L10.58 37.16L10.58 56L4.95 56L4.95 13.34L31.38 13.34L31.38 17.97L10.58 17.97L10.58 32.56L28.48 32.56L28.48 37.16ZM43.15 56L37.73 56L37.73 11L43.15 11L43.15 56ZM65.01 56.59C60.71 56.59 57.22 55.18 54.52 52.37C51.83 49.54 50.48 45.76 50.48 41.03L50.48 40.03C50.48 36.89 51.07 34.09 52.27 31.63C53.48 29.14 55.16 27.21 57.3 25.82C59.47 24.42 61.82 23.71 64.34 23.71C68.46 23.71 71.66 25.07 73.95 27.79C76.23 30.5 77.37 34.39 77.37 39.45L77.37 41.7L55.9 41.7C55.98 44.83 56.88 47.36 58.62 49.29C60.38 51.21 62.61 52.16 65.3 52.16C67.22 52.16 68.84 51.77 70.17 50.99C71.49 50.21 72.66 49.17 73.65 47.88L76.96 50.46C74.31 54.54 70.32 56.59 65.01 56.59ZM64.34 28.17C62.15 28.17 60.31 28.97 58.83 30.57C57.34 32.15 56.43 34.38 56.07 37.25L71.95 37.25L71.95 36.84C71.8 34.09 71.05 31.96 69.73 30.45C68.4 28.93 66.6 28.17 64.34 28.17ZM94.31 35.87L101.34 24.3L107.67 24.3L97.29 39.97L107.99 56L101.72 56L94.39 44.13L87.07 56L80.77 56L91.46 39.97L81.09 24.3L87.36 24.3L94.31 35.87Z" />
	<path id="Layer" fill-rule="evenodd" class="shp1" d="M134.05 0.49L139.28 11.31L135.29 18.98L129.55 7.25L111.05 7.25L135.37 56.23L162.86 0.49L171.11 0.49L137.38 66.95L132.87 66.95L99.63 0.49L134.05 0.49ZM157.65 0.49L135.1 45.35L119.15 12.73L126.7 12.73L135.1 29.76L150.03 0.49L157.65 0.49Z" />
</svg>