<svg width="358" height="355" viewBox="0 0 358 355" fill="none" xmlns="http://www.w3.org/2000/svg">
<path d="M176.29 189.399C197.398 189.399 214.508 172.285 214.508 151.179C214.508 130.071 197.398 112.959 176.29 112.959C155.18 112.959 138.07 130.071 138.07 151.179C138.096 172.276 155.191 189.371 176.29 189.399ZM176.29 127.818C189.232 127.818 199.723 138.309 199.723 151.253C199.723 164.194 189.232 174.687 176.29 174.687C163.346 174.687 152.856 164.194 152.856 151.253C152.858 138.311 163.348 127.823 176.29 127.818Z" fill="#CCCCCC"/>
<path d="M176.291 203.519C160.653 203.404 145.646 209.68 134.745 220.892C123.656 232.203 117.594 247.579 117.594 264.287C117.605 268.364 120.907 271.668 124.986 271.679H227.594C231.673 271.668 234.975 268.364 234.986 264.287C234.986 247.579 228.924 232.203 217.835 220.892C206.936 209.68 191.927 203.404 176.291 203.519ZM132.896 256.894C134.16 247.228 138.519 238.232 145.316 231.241C153.496 222.964 164.652 218.304 176.291 218.304C187.928 218.304 199.084 222.964 207.264 231.241C214.047 238.239 218.401 247.233 219.684 256.894H132.896Z" fill="#CCCCCC"/>
<path d="M264.999 11.2373H87.5764C67.1658 11.2465 50.6202 27.7898 50.6133 48.2004V309.899C50.6202 330.31 67.1658 346.853 87.5764 346.862H264.999C285.41 346.853 301.953 330.31 301.962 309.899V48.2004C301.953 27.7898 285.41 11.2465 264.999 11.2373ZM287.177 309.899C287.143 322.132 277.232 332.042 264.999 332.077H87.5764C75.3439 332.042 65.4332 322.132 65.3985 309.899V48.2004C65.4332 35.9679 75.3439 26.0572 87.5764 26.0225H264.999C277.232 26.0572 287.143 35.9679 287.177 48.2004V309.899Z" fill="#CCCCCC"/>
</svg>
