<svg width="177" height="38" viewBox="0 0 177 38" fill="none" xmlns="http://www.w3.org/2000/svg">
<path d="M1.45776 31.8991V27.8545H4.06199C5.31222 27.8545 6.27267 27.5837 6.94334 27.0421C7.61402 26.5004 7.94935 25.7282 7.94935 24.7253C7.94935 23.7745 7.60642 23.0105 6.92057 22.4334C6.23471 21.8562 5.28691 21.5677 4.07717 21.5677H0V31.8991H1.45776ZM4.07717 26.7405H1.45776V22.6888H4.16069C4.88451 22.703 5.45395 22.8946 5.86901 23.2636C6.28406 23.6325 6.49159 24.1245 6.49159 24.7395C6.49159 25.3876 6.28406 25.8831 5.86901 26.2261C5.45395 26.569 4.85667 26.7405 4.07717 26.7405ZM12.8617 32.0411C13.6007 32.0411 14.2549 31.8755 14.8244 31.5443C15.3938 31.2132 15.8316 30.7508 16.1379 30.1571C16.4441 29.5634 16.5972 28.8929 16.5972 28.1455V28.0532C16.5972 26.8517 16.2518 25.889 15.5608 25.1652C14.8699 24.4415 13.9651 24.0796 12.8465 24.0796C12.1227 24.0796 11.4786 24.2428 10.9142 24.5692C10.3498 24.8956 9.90948 25.3592 9.59313 25.96C9.27677 26.5607 9.1186 27.2372 9.1186 27.9894V28.0816C9.1186 29.2737 9.46406 30.2316 10.155 30.9554C10.8459 31.6792 11.7481 32.0411 12.8617 32.0411ZM12.8617 30.9696C12.1531 30.9696 11.5874 30.7118 11.1648 30.1961C10.7421 29.6805 10.5308 28.997 10.5308 28.1455C10.5308 27.1852 10.7434 26.4472 11.1686 25.9316C11.5938 25.4159 12.1531 25.1581 12.8465 25.1581C13.5551 25.1581 14.1233 25.4195 14.551 25.9422C14.9787 26.4649 15.1926 27.1473 15.1926 27.9894C15.1926 28.9307 14.9825 29.6628 14.5624 30.1855C14.1423 30.7082 13.5754 30.9696 12.8617 30.9696ZM21.1451 31.8991L23.0888 26.0806L25.0856 31.8991H26.2245L28.6161 24.2215H27.2115L25.6323 30.0897L23.681 24.2215H22.5497L20.6364 29.9691L19.0192 24.2215H17.6222L20.0062 31.8991H21.1451ZM33.4526 32.0411C34.8293 32.0411 35.8619 31.5467 36.5503 30.558L35.6924 29.9336C35.4342 30.2458 35.133 30.4965 34.7889 30.6858C34.4447 30.875 34.0245 30.9696 33.5285 30.9696C32.83 30.9696 32.2542 30.7366 31.8012 30.2707C31.3482 29.8047 31.1115 29.1933 31.0913 28.4364H36.6566V27.89C36.6566 26.6648 36.3605 25.7234 35.7683 25.0659C35.1761 24.4083 34.346 24.0796 33.2779 24.0796C32.625 24.0796 32.0189 24.2487 31.4595 24.5869C30.9002 24.9252 30.4649 25.3935 30.1536 25.9919C29.8423 26.5903 29.6867 27.2703 29.6867 28.0319V28.2732C29.6867 29.418 30.0359 30.3322 30.7345 31.0157C31.433 31.6993 32.339 32.0411 33.4526 32.0411ZM35.252 27.3578H31.1369C31.228 26.6624 31.4659 26.122 31.8506 25.7364C32.2352 25.3509 32.711 25.1581 33.2779 25.1581C33.8651 25.1581 34.3308 25.3414 34.675 25.7081C35.0192 26.0747 35.2115 26.5915 35.252 27.2585V27.3578ZM39.686 31.8991V26.4496C40.015 25.7163 40.6401 25.3497 41.5614 25.3497C41.8094 25.3497 42.0397 25.3663 42.2523 25.3994V24.1789C42.1106 24.1127 41.903 24.0796 41.6297 24.0796C40.7844 24.0796 40.1314 24.4225 39.6708 25.1085L39.6481 24.2215H38.2814V31.8991H39.686ZM46.8078 32.0411C48.1846 32.0411 49.2171 31.5467 49.9055 30.558L49.0476 29.9336C48.7894 30.2458 48.4883 30.4965 48.1441 30.6858C47.7999 30.875 47.3798 30.9696 46.8837 30.9696C46.1852 30.9696 45.6094 30.7366 45.1564 30.2707C44.7034 29.8047 44.4668 29.1933 44.4465 28.4364H50.0118V27.89C50.0118 26.6648 49.7157 25.7234 49.1235 25.0659C48.5313 24.4083 47.7012 24.0796 46.6332 24.0796C45.9802 24.0796 45.3741 24.2487 44.8148 24.5869C44.2554 24.9252 43.8201 25.3935 43.5088 25.9919C43.1975 26.5903 43.0419 27.2703 43.0419 28.0319V28.2732C43.0419 29.418 43.3912 30.3322 44.0897 31.0157C44.7882 31.6993 45.6942 32.0411 46.8078 32.0411ZM48.6072 27.3578H44.4921C44.5832 26.6624 44.8211 26.122 45.2058 25.7364C45.5905 25.3509 46.0662 25.1581 46.6332 25.1581C47.2203 25.1581 47.686 25.3414 48.0302 25.7081C48.3744 26.0747 48.5667 26.5915 48.6072 27.2585V27.3578ZM54.5218 32.0411C55.524 32.0411 56.306 31.7194 56.8679 31.076L56.9362 31.8991H58.2269V21H56.8223V25.002C56.2605 24.3871 55.4987 24.0796 54.537 24.0796C53.5702 24.0796 52.7881 24.4379 52.1909 25.1546C51.5936 25.8713 51.295 26.8186 51.295 27.9965V28.0958C51.295 29.269 51.5949 30.2198 52.1947 30.9483C52.7945 31.6768 53.5702 32.0411 54.5218 32.0411ZM54.871 30.927C54.1928 30.927 53.6613 30.681 53.2766 30.1891C52.8919 29.6971 52.6996 29.0159 52.6996 28.1455C52.6996 27.171 52.8919 26.4354 53.2766 25.9387C53.6613 25.442 54.1978 25.1936 54.8862 25.1936C55.7568 25.1936 56.4022 25.5555 56.8223 26.2793V29.8059C56.4123 30.5533 55.7619 30.927 54.871 30.927ZM68.0212 32.0411C68.9931 32.0411 69.7675 31.6851 70.3445 30.9731C70.9216 30.2612 71.2101 29.3186 71.2101 28.1455V28.0319C71.2101 26.8067 70.9254 25.8417 70.3559 25.1368C69.7865 24.432 69.0032 24.0796 68.0061 24.0796C67.0089 24.0796 66.2269 24.4083 65.66 25.0659V21H64.2554V31.8991H65.5461L65.6144 31.0122C66.1813 31.6981 66.9836 32.0411 68.0212 32.0411ZM67.672 30.927C66.7609 30.927 66.0902 30.5249 65.66 29.7207V26.3999C66.0649 25.5957 66.7305 25.1936 67.6568 25.1936C68.3502 25.1936 68.8817 25.4372 69.2512 25.9245C69.6207 26.4117 69.8055 27.1024 69.8055 27.9965C69.8055 28.9757 69.6182 29.7089 69.2436 30.1961C68.8691 30.6834 68.3452 30.927 67.672 30.927ZM73.2601 35C74.3736 35 75.186 34.3614 75.6973 33.0841L79 24.2215H77.4967L75.5834 29.9762L73.5334 24.2215H71.9997L74.9304 31.814L74.6191 32.5945C74.447 33.0723 74.2281 33.4011 73.9624 33.5808C73.6966 33.7606 73.3259 33.8505 72.8501 33.8505L72.4704 33.8221V34.8865L72.9943 34.9787L73.2601 35Z" fill="#AEB4B7"/>
<mask id="mask0" mask-type="alpha" maskUnits="userSpaceOnUse" x="85" y="16" width="12" height="21">
<path d="M85 16.8465H96.5815V36.9963H85V16.8465Z" fill="white"/>
</mask>
<g mask="url(#mask0)">
<path fill-rule="evenodd" clip-rule="evenodd" d="M85 16.8465V36.8291C85.6949 36.9415 86.3844 36.9963 87.0721 36.9963C87.7022 36.9963 88.3787 36.9415 89.0857 36.8291V28.4634H94.9071C95.0114 27.8915 95.0709 27.3028 95.0709 26.7125C95.0709 26.1535 95.0114 25.5815 94.9071 24.992H89.0857V20.2937H96.4133C96.5219 19.7337 96.5816 19.1513 96.5816 18.5374C96.5816 17.9661 96.5219 17.4002 96.4133 16.8465H85Z" fill="#414042"/>
</g>
<mask id="mask1" mask-type="alpha" maskUnits="userSpaceOnUse" x="85" y="16" width="12" height="21">
<path d="M85 16.8465H96.5815V36.9963H85V16.8465Z" fill="white"/>
</mask>
<g mask="url(#mask1)">
<path fill-rule="evenodd" clip-rule="evenodd" d="M85 16.8465V36.8291C85.6949 36.9415 86.3844 36.9963 87.0721 36.9963C87.7022 36.9963 88.3787 36.9415 89.0857 36.8291V28.4634H94.9071C95.0114 27.8915 95.0709 27.3028 95.0709 26.7125C95.0709 26.1535 95.0114 25.5815 94.9071 24.992H89.0857V20.2937H96.4133C96.5219 19.7337 96.5816 19.1513 96.5816 18.5374C96.5816 17.9661 96.5219 17.4002 96.4133 16.8465H85Z" fill="#414042"/>
</g>
<path fill-rule="evenodd" clip-rule="evenodd" d="M99.2837 16.513V31.9708C99.2837 33.7444 99.7148 35.0312 100.584 35.8174C101.452 36.6029 102.603 36.9965 104.034 36.9965C104.388 36.9965 104.778 36.9782 105.198 36.9415C105.617 36.9007 105.976 36.8345 106.27 36.7458C106.312 36.596 106.33 36.4654 106.33 36.3399V35.9411C106.33 35.2149 106.228 34.4766 106.018 33.7148C105.851 33.7573 105.682 33.781 105.503 33.7983C105.323 33.8166 105.161 33.828 105.017 33.828C104.682 33.828 104.401 33.7923 104.173 33.7148C103.952 33.6434 103.772 33.5066 103.628 33.3169C103.489 33.1192 103.388 32.8457 103.323 32.4939C103.256 32.1431 103.226 31.6781 103.226 31.1008V16.513C102.549 16.3998 101.902 16.3467 101.267 16.3467C100.614 16.3467 99.9548 16.3998 99.2837 16.513Z" fill="#414042"/>
<path fill-rule="evenodd" clip-rule="evenodd" d="M99.2837 16.513V31.9708C99.2837 33.7444 99.7148 35.0312 100.584 35.8174C101.452 36.6029 102.603 36.9965 104.034 36.9965C104.388 36.9965 104.778 36.9782 105.198 36.9415C105.617 36.9007 105.976 36.8345 106.27 36.7458C106.312 36.596 106.33 36.4654 106.33 36.3399V35.9411C106.33 35.2149 106.228 34.4766 106.018 33.7148C105.851 33.7573 105.682 33.781 105.503 33.7983C105.323 33.8166 105.161 33.828 105.017 33.828C104.682 33.828 104.401 33.7923 104.173 33.7148C103.952 33.6434 103.772 33.5066 103.628 33.3169C103.489 33.1192 103.388 32.8457 103.323 32.4939C103.256 32.1431 103.226 31.6781 103.226 31.1008V16.513C102.549 16.3998 101.902 16.3467 101.267 16.3467C100.614 16.3467 99.9548 16.3998 99.2837 16.513Z" fill="#414042"/>
<path fill-rule="evenodd" clip-rule="evenodd" d="M110.38 22.7229C109.518 23.1226 108.793 23.6642 108.2 24.3581C107.618 25.04 107.175 25.8444 106.875 26.769C106.576 27.6956 106.426 28.6891 106.426 29.7374C106.426 30.8205 106.57 31.8097 106.863 32.7142C107.15 33.6286 107.594 34.4052 108.2 35.0661C108.805 35.7216 109.59 36.2399 110.554 36.6081C111.513 36.9781 112.663 37.1627 114.005 37.1627C115.832 37.1627 117.474 36.8832 118.931 36.3286C118.906 35.733 118.823 35.1793 118.674 34.6613C118.528 34.1439 118.35 33.7035 118.145 33.3272C117.546 33.5483 116.918 33.72 116.258 33.8401C115.593 33.9594 114.946 34.0247 114.31 34.0247C113.154 34.0247 112.225 33.7688 111.513 33.2742C110.811 32.7682 110.417 31.9646 110.344 30.851H119.625C119.664 30.6482 119.697 30.38 119.722 30.0289C119.758 29.693 119.769 29.3446 119.769 28.9938C119.769 28.0291 119.625 27.1234 119.343 26.2771C119.067 25.4387 118.648 24.7125 118.104 24.102C117.552 23.4857 116.887 23.0093 116.101 22.6525C115.316 22.3005 114.425 22.1273 113.418 22.1273C112.262 22.1273 111.249 22.3268 110.38 22.7229ZM111.237 25.9079C111.722 25.3908 112.43 25.1296 113.357 25.1296C114.185 25.1296 114.82 25.4029 115.275 25.9505C115.731 26.4931 115.983 27.2133 116.018 28.1064H110.368C110.464 27.1591 110.751 26.4269 111.237 25.9079Z" fill="#414042"/>
<path fill-rule="evenodd" clip-rule="evenodd" d="M110.38 22.7229C109.518 23.1226 108.793 23.6642 108.2 24.3581C107.618 25.04 107.175 25.8444 106.875 26.769C106.576 27.6956 106.426 28.6891 106.426 29.7374C106.426 30.8205 106.57 31.8097 106.863 32.7142C107.15 33.6286 107.594 34.4052 108.2 35.0661C108.805 35.7216 109.59 36.2399 110.554 36.6081C111.513 36.9781 112.663 37.1627 114.005 37.1627C115.832 37.1627 117.474 36.8832 118.931 36.3286C118.906 35.733 118.823 35.1793 118.674 34.6613C118.528 34.1439 118.35 33.7035 118.145 33.3272C117.546 33.5483 116.918 33.72 116.258 33.8401C115.593 33.9594 114.946 34.0247 114.31 34.0247C113.154 34.0247 112.225 33.7688 111.513 33.2742C110.811 32.7682 110.417 31.9646 110.344 30.851H119.625C119.664 30.6482 119.697 30.38 119.722 30.0289C119.758 29.693 119.769 29.3446 119.769 28.9938C119.769 28.0291 119.625 27.1234 119.343 26.2771C119.067 25.4387 118.648 24.7125 118.104 24.102C117.552 23.4857 116.887 23.0093 116.101 22.6525C115.316 22.3005 114.425 22.1273 113.418 22.1273C112.262 22.1273 111.249 22.3268 110.38 22.7229ZM111.237 25.9079C111.722 25.3908 112.43 25.1296 113.357 25.1296C114.185 25.1296 114.82 25.4029 115.275 25.9505C115.731 26.4931 115.983 27.2133 116.018 28.1064H110.368C110.464 27.1591 110.751 26.4269 111.237 25.9079Z" fill="#414042"/>
<path fill-rule="evenodd" clip-rule="evenodd" d="M134.593 22.4617L130.231 29.4876L135.264 36.8292C135.928 36.9416 136.594 36.9964 137.247 36.9964C137.899 36.9964 139.014 36.9416 139.739 36.8292L134.293 29.4091L139.206 22.4617C138.541 22.3485 137.432 22.2885 136.743 22.2885C135.994 22.2885 135.275 22.3485 134.593 22.4617Z" fill="#414042"/>
<path fill-rule="evenodd" clip-rule="evenodd" d="M134.593 22.4617L130.231 29.4876L135.264 36.8292C135.928 36.9416 136.594 36.9964 137.247 36.9964C137.899 36.9964 139.014 36.9416 139.739 36.8292L134.293 29.4091L139.206 22.4617C138.541 22.3485 137.432 22.2885 136.743 22.2885C135.994 22.2885 135.275 22.3485 134.593 22.4617Z" fill="#414042"/>
<path fill-rule="evenodd" clip-rule="evenodd" d="M121.082 22.4617L125.97 29.4091L120.549 36.8292C121.279 36.9416 122.386 36.9964 123.047 36.9964C123.7 36.9964 124.358 36.9416 125.03 36.8292L130.033 29.4876L125.701 22.4617C124.976 22.3485 124.257 22.2885 123.544 22.2885C122.801 22.2885 121.698 22.3485 121.082 22.4617Z" fill="#414042"/>
<path fill-rule="evenodd" clip-rule="evenodd" d="M121.082 22.4617L125.97 29.4091L120.549 36.8292C121.279 36.9416 122.386 36.9964 123.047 36.9964C123.7 36.9964 124.358 36.9416 125.03 36.8292L130.033 29.4876L125.701 22.4617C124.976 22.3485 124.257 22.2885 123.544 22.2885C122.801 22.2885 121.698 22.3485 121.082 22.4617Z" fill="#414042"/>
<path fill-rule="evenodd" clip-rule="evenodd" d="M155.682 16.8465L150.931 28.2963L146.313 16.8465C145.604 16.7333 144.886 16.6802 144.161 16.6802C143.473 16.6802 142.753 16.7333 142.005 16.8465L141.225 36.8291C141.861 36.9415 142.472 36.9963 143.07 36.9963C143.628 36.9963 144.204 36.9415 144.802 36.8291L145.198 23.0686L148.996 32.6629C149.26 32.7144 149.511 32.7561 149.751 32.7683C149.996 32.7917 150.243 32.804 150.482 32.804C150.763 32.804 151.04 32.7857 151.321 32.7561C151.596 32.7327 151.866 32.6968 152.13 32.6629L156.216 23.2645L156.72 36.8291C157.337 36.9415 157.959 36.9963 158.595 36.9963C159.225 36.9963 159.895 36.9415 160.608 36.8291L159.655 16.8465C159.002 16.7333 158.32 16.6802 157.612 16.6802C156.906 16.6802 156.264 16.7333 155.682 16.8465Z" fill="#414042"/>
<path fill-rule="evenodd" clip-rule="evenodd" d="M155.682 16.8465L150.931 28.2963L146.313 16.8465C145.604 16.7333 144.886 16.6802 144.161 16.6802C143.473 16.6802 142.753 16.7333 142.005 16.8465L141.225 36.8291C141.861 36.9415 142.472 36.9963 143.07 36.9963C143.628 36.9963 144.204 36.9415 144.802 36.8291L145.198 23.0686L148.996 32.6629C149.26 32.7144 149.511 32.7561 149.751 32.7683C149.996 32.7917 150.243 32.804 150.482 32.804C150.763 32.804 151.04 32.7857 151.321 32.7561C151.596 32.7327 151.866 32.6968 152.13 32.6629L156.216 23.2645L156.72 36.8291C157.337 36.9415 157.959 36.9963 158.595 36.9963C159.225 36.9963 159.895 36.9415 160.608 36.8291L159.655 16.8465C159.002 16.7333 158.32 16.6802 157.612 16.6802C156.906 16.6802 156.264 16.7333 155.682 16.8465Z" fill="#414042"/>
<path fill-rule="evenodd" clip-rule="evenodd" d="M162.628 6.06975L156.785 7.23999C156.876 7.36459 157.027 7.55873 157.253 7.81462C157.48 8.07586 157.749 8.36853 158.062 8.67747C158.314 8.92222 158.558 9.14512 158.805 9.35665C159.044 9.5586 159.212 9.6841 159.308 9.74317L164.891 8.32061L166.33 2.77149C166.277 2.67564 166.145 2.50846 165.935 2.26483C165.731 2.02098 165.51 1.77712 165.258 1.53327C164.94 1.21809 164.652 0.949938 164.388 0.72882C164.126 0.502353 163.93 0.348328 163.805 0.26474L162.628 6.06975Z" fill="#414042"/>
<path fill-rule="evenodd" clip-rule="evenodd" d="M163.794 0.317017L162.628 6.06987L156.785 7.2401C156.876 7.36448 157.027 7.55863 157.253 7.81474C157.48 8.07598 157.749 8.36843 158.062 8.67759C158.314 8.92211 158.558 9.14502 158.805 9.35677C159.043 9.55872 159.212 9.68399 159.308 9.74328L164.891 8.32051L166.33 2.7716C166.276 2.67576 166.145 2.50858 165.935 2.26473C165.731 2.0211 165.51 1.77724 165.257 1.53339C164.94 1.21821 164.652 0.950056 164.388 0.728938C164.173 0.544376 164.004 0.406623 163.881 0.317017H163.794Z" fill="#414042"/>
<path fill-rule="evenodd" clip-rule="evenodd" d="M158.775 10.3327C158.535 10.5416 158.29 10.7681 158.038 11.0119C157.72 11.3218 157.451 11.6135 157.229 11.8696C157.004 12.1316 156.851 12.3215 156.761 12.4494L162.603 13.6196L163.784 19.4255C163.906 19.3411 164.101 19.1835 164.359 18.9606C164.623 18.7403 164.917 18.4722 165.228 18.157C165.479 17.9096 165.701 17.6684 165.91 17.4246C166.115 17.1861 166.247 17.0138 166.307 16.9188L164.869 11.3688L159.284 9.94623C159.188 9.99928 159.021 10.1308 158.775 10.3327Z" fill="#414042"/>
<path fill-rule="evenodd" clip-rule="evenodd" d="M158.775 10.3327C158.535 10.5416 158.29 10.7681 158.038 11.0119C157.72 11.3218 157.451 11.6135 157.229 11.8696C157.004 12.1316 156.851 12.3215 156.761 12.4494L162.603 13.6196L163.784 19.4255C163.906 19.3411 164.101 19.1835 164.359 18.9606C164.623 18.7403 164.917 18.4722 165.228 18.157C165.479 17.9096 165.701 17.6684 165.91 17.4246C166.115 17.1861 166.247 17.0138 166.307 16.9188L164.869 11.3688L159.284 9.94623C159.188 9.99928 159.021 10.1308 158.775 10.3327Z" fill="#414042"/>
<path fill-rule="evenodd" clip-rule="evenodd" d="M167.954 11.3567L166.517 16.9065C166.575 17.0077 166.708 17.174 166.911 17.4125C167.115 17.6563 167.343 17.8975 167.594 18.1447C167.905 18.4599 168.2 18.728 168.463 18.9485C168.72 19.1714 168.916 19.3299 169.041 19.4135L170.219 13.6085L176.061 12.4373C175.97 12.3127 175.819 12.1195 175.593 11.8573C175.371 11.6015 175.102 11.3097 174.784 10.9996C174.538 10.756 174.287 10.5295 174.047 10.3276C173.802 10.1185 173.634 9.98698 173.538 9.93393L167.954 11.3567Z" fill="#414042"/>
<path fill-rule="evenodd" clip-rule="evenodd" d="M167.954 11.3567L166.517 16.9065C166.575 17.0077 166.708 17.174 166.911 17.4125C167.115 17.6563 167.343 17.8975 167.594 18.1447C167.905 18.4599 168.2 18.728 168.463 18.9485C168.72 19.1714 168.916 19.3299 169.041 19.4135L170.219 13.6085L176.061 12.4373C175.97 12.3127 175.819 12.1195 175.593 11.8573C175.371 11.6015 175.102 11.3097 174.784 10.9996C174.538 10.756 174.287 10.5295 174.047 10.3276C173.802 10.1185 173.634 9.98698 173.538 9.93393L167.954 11.3567Z" fill="#414042"/>
<mask id="mask2" mask-type="alpha" maskUnits="userSpaceOnUse" x="166" y="0" width="11" height="10">
<path d="M166.558 0.222961H176.102V9.70228H166.558V0.222961Z" fill="white"/>
</mask>
<g mask="url(#mask2)">
<path fill-rule="evenodd" clip-rule="evenodd" d="M168.499 0.687042C168.242 0.907268 167.948 1.17542 167.635 1.48547C167.385 1.73802 167.157 1.9792 166.952 2.2177C166.749 2.46758 166.617 2.63386 166.558 2.72369L167.996 8.27883L173.574 9.70228C173.676 9.64834 173.842 9.51772 174.083 9.31488C174.328 9.10334 174.579 8.88044 174.826 8.6357C175.144 8.32051 175.407 8.03498 175.635 7.77285C175.86 7.51071 176.014 7.32348 176.102 7.19821L170.255 6.02798L169.084 0.222961C168.957 0.305658 168.762 0.46414 168.499 0.687042Z" fill="#414042"/>
</g>
<mask id="mask3" mask-type="alpha" maskUnits="userSpaceOnUse" x="166" y="0" width="11" height="10">
<path d="M166.558 0.317017H176.102V9.70227H166.558V0.317017Z" fill="white"/>
</mask>
<g mask="url(#mask3)">
<path fill-rule="evenodd" clip-rule="evenodd" d="M168.952 0.317017C168.834 0.406623 168.684 0.531225 168.499 0.687032C168.242 0.907259 167.948 1.17563 167.636 1.48546C167.385 1.73801 167.157 1.97919 166.952 2.21769C166.749 2.46757 166.618 2.63407 166.558 2.72368L167.996 8.27882L173.574 9.70227C173.676 9.64833 173.843 9.51771 174.083 9.31487C174.328 9.10333 174.579 8.88043 174.826 8.63569C175.144 8.3205 175.407 8.03497 175.635 7.77284C175.86 7.5107 176.014 7.32369 176.102 7.1982L170.255 6.02797L169.102 0.317017H168.952Z" fill="#414042"/>
</g>
</svg>
