<svg width="60" height="60" viewBox="0 0 60 60" fill="none" xmlns="http://www.w3.org/2000/svg">
<g clip-path="url(#clip0)">
<path d="M10.2227 14.0788C10.2227 14.5642 10.6161 14.9577 11.1016 14.9577H15.1517C15.6372 14.9577 16.0306 14.5642 16.0306 14.0788C16.0306 13.5934 15.6372 13.1999 15.1517 13.1999H11.1016C10.6161 13.1999 10.2227 13.5934 10.2227 14.0788V14.0788Z" fill="#21B371"/>
<path d="M21.2695 14.9577H37.0005C37.4861 14.9577 37.8795 14.5642 37.8795 14.0788C37.8795 13.5934 37.4861 13.1999 37.0005 13.1999H21.2695C20.784 13.1999 20.3906 13.5934 20.3906 14.0788C20.3906 14.5642 20.7841 14.9577 21.2695 14.9577V14.9577Z" fill="#21B371"/>
<path d="M15.1516 21.1604H11.1016C10.6161 21.1604 10.2227 21.5539 10.2227 22.0393C10.2227 22.5247 10.6161 22.9182 11.1016 22.9182H15.1517C15.6372 22.9182 16.0306 22.5247 16.0306 22.0393C16.0306 21.5539 15.6371 21.1604 15.1516 21.1604Z" fill="#21B371"/>
<path d="M21.2695 22.9182H37.0005C37.4861 22.9182 37.8795 22.5247 37.8795 22.0393C37.8795 21.5539 37.4861 21.1604 37.0005 21.1604H21.2695C20.784 21.1604 20.3906 21.5539 20.3906 22.0393C20.3906 22.5247 20.7841 22.9182 21.2695 22.9182V22.9182Z" fill="#21B371"/>
<path d="M15.1516 29.1211H11.1016C10.6161 29.1211 10.2227 29.5146 10.2227 30C10.2227 30.4854 10.6161 30.8789 11.1016 30.8789H15.1517C15.6372 30.8789 16.0306 30.4854 16.0306 30C16.0306 29.5146 15.6371 29.1211 15.1516 29.1211Z" fill="#21B371"/>
<path d="M21.2695 30.8789H37.0005C37.4861 30.8789 37.8795 30.4854 37.8795 30C37.8795 29.5146 37.4861 29.1211 37.0005 29.1211H21.2695C20.784 29.1211 20.3906 29.5146 20.3906 30C20.3906 30.4854 20.7841 30.8789 21.2695 30.8789V30.8789Z" fill="#21B371"/>
<path d="M15.1516 37.0818H11.1016C10.6161 37.0818 10.2227 37.4752 10.2227 37.9607C10.2227 38.4462 10.6161 38.8396 11.1016 38.8396H15.1517C15.6372 38.8396 16.0306 38.4462 16.0306 37.9607C16.0306 37.4752 15.6371 37.0818 15.1516 37.0818Z" fill="#21B371"/>
<path d="M15.1516 45.0424H11.1016C10.6161 45.0424 10.2227 45.4358 10.2227 45.9213C10.2227 46.4068 10.6161 46.8002 11.1016 46.8002H15.1517C15.6372 46.8002 16.0306 46.4068 16.0306 45.9213C16.0306 45.4358 15.6371 45.0424 15.1516 45.0424Z" fill="#21B371"/>
<path d="M56.6719 41.0898C56.6718 41.0898 56.6718 41.0898 56.6719 41.0898L55.5893 40.4391C55.5326 40.405 55.4849 40.3566 55.4518 40.2991L53.0541 36.1462C53.0211 36.0889 53.0029 36.0236 53.0018 35.9571L52.9796 34.6945C52.9663 33.9445 52.5544 33.2455 51.9048 32.8705L49.7758 31.6413C49.1257 31.2661 48.3147 31.2591 47.6588 31.6227L46.5539 32.2349C46.4959 32.267 46.4302 32.284 46.364 32.284H45.8124V9.43031C45.8124 9.19723 45.7198 8.97363 45.555 8.80887L37.0035 0.257461C36.8386 0.0925781 36.615 0 36.382 0H17.3345C16.849 0 16.4556 0.393516 16.4556 0.878906C16.4556 1.3643 16.849 1.75781 17.3345 1.75781H35.503V8.8343C35.503 9.64758 36.1647 10.3092 36.978 10.3092H44.0545V32.2839H41.5688C41.5025 32.2839 41.4366 32.2668 41.3786 32.2346L40.2741 31.6227C39.6179 31.2591 38.8068 31.2662 38.1569 31.6412L36.0279 32.8704C35.3784 33.2454 34.9664 33.9444 34.9532 34.6944L34.9309 35.9571C34.9298 36.0234 34.9116 36.0889 34.8786 36.1462L34.3386 37.0815H21.269C20.7835 37.0815 20.3901 37.4749 20.3901 37.9604C20.3901 38.4459 20.7835 38.8393 21.269 38.8393H33.3236L32.481 40.2988C32.4477 40.3563 32.4002 40.4047 32.3432 40.4389L31.2609 41.0896C30.618 41.4761 30.2185 42.1821 30.2185 42.9325V45.0422H21.269C20.7835 45.0422 20.3901 45.4356 20.3901 45.9211C20.3901 46.4066 20.7835 46.8 21.269 46.8H30.7469C30.8929 46.9687 31.0655 47.1161 31.2609 47.2335L32.3433 47.8843C32.4 47.9184 32.4477 47.9668 32.4809 48.0243L34.8783 52.1768C34.9115 52.2343 34.9296 52.2998 34.9308 52.3663L34.9531 53.6289C34.9663 54.3787 35.3781 55.0777 36.0278 55.4529L38.1568 56.682C38.8062 57.0571 39.6176 57.0642 40.2739 56.7007L41.3785 56.0886C41.4365 56.0565 41.5023 56.0394 41.5687 56.0394H44.0543V57.7269C44.0543 58.0109 43.8234 58.2418 43.5394 58.2418H4.5618C4.27785 58.2418 4.04688 58.0109 4.04688 57.7269V2.27273C4.04688 1.98879 4.27785 1.75781 4.5618 1.75781H13.8205C14.3061 1.75781 14.6995 1.3643 14.6995 0.878906C14.6995 0.393516 14.3061 0 13.8205 0H4.5618C3.30859 0 2.28906 1.01953 2.28906 2.27273V57.7274C2.28906 58.9805 3.30859 60 4.5618 60H43.5395C44.7926 60 45.8123 58.9805 45.8123 57.7273V56.0398H46.3639C46.4301 56.0398 46.4958 56.0568 46.5539 56.089L47.6587 56.7011C47.9812 56.8796 48.3408 56.9687 48.7006 56.9687C49.073 56.9687 49.4453 56.8732 49.7758 56.6823L51.905 55.4531C52.5545 55.078 52.9663 54.3791 52.9796 53.6292L53.0018 52.3665C53.003 52.3002 53.0211 52.2348 53.0542 52.1774L55.4516 48.0247C55.4849 47.9672 55.5325 47.9188 55.5895 47.8846L56.6717 47.2339C57.3147 46.8475 57.7142 46.1414 57.7142 45.3911V42.9327C57.7141 42.1826 57.3147 41.4764 56.6719 41.0898V41.0898ZM37.2609 3.00082L42.8114 8.55152H37.2609V3.00082ZM55.9563 45.3909C55.9563 45.5278 55.8834 45.6567 55.7661 45.7271L54.6838 46.3778C54.3722 46.5652 54.1114 46.8305 53.9294 47.1456L51.532 51.2982C51.35 51.6132 51.2506 51.9718 51.2441 52.3355L51.2219 53.598C51.2194 53.7349 51.1443 53.8625 51.0258 53.931L48.8966 55.1602C48.778 55.2286 48.6303 55.2299 48.5105 55.1634L47.4059 54.5515C47.0879 54.3751 46.7275 54.282 46.3638 54.282H41.5687C41.205 54.282 40.8447 54.3751 40.5265 54.5514L39.4219 55.1634C39.3023 55.2296 39.1541 55.2285 39.0355 55.16L36.9067 53.9311C36.7881 53.8625 36.713 53.7349 36.7105 53.598L36.6883 52.3356C36.6818 51.9722 36.5825 51.6137 36.4006 51.2984L34.0029 47.1455C33.8211 46.8305 33.5603 46.5652 33.2487 46.3779L32.1661 45.727C32.0489 45.6566 31.9762 45.5278 31.9762 45.3909V42.9326C31.9762 42.7957 32.0491 42.6667 32.1664 42.5963L33.2486 41.9457C33.5602 41.7584 33.8211 41.493 34.003 41.1779L36.4007 37.025C36.5825 36.71 36.6818 36.3514 36.6883 35.9882L36.7105 34.7256C36.713 34.5887 36.788 34.4611 36.9066 34.3927L39.0354 33.1636C39.1538 33.095 39.3019 33.0935 39.4219 33.1602L40.5265 33.7723C40.8447 33.9485 41.205 34.0417 41.5687 34.0417H46.3638C46.7275 34.0417 47.0879 33.9485 47.4058 33.7723L48.5106 33.1601C48.6304 33.094 48.7782 33.0952 48.8968 33.1635L51.0258 34.3927C51.1444 34.4611 51.2194 34.5887 51.2219 34.7256L51.2441 35.988C51.2506 36.3518 51.35 36.7104 51.5318 37.0253L53.9295 41.1782C54.1114 41.4932 54.3721 41.7585 54.6837 41.9457L55.7659 42.5964C55.8834 42.6669 55.9563 42.7958 55.9563 42.9327V45.3909Z" fill="#21B371"/>
<path d="M43.9669 36.0192C39.4771 36.0192 35.8242 39.672 35.8242 44.1618C35.8242 48.6516 39.4771 52.3044 43.9669 52.3044C45.9453 52.3044 47.8537 51.5844 49.3404 50.2771C49.705 49.9567 49.7406 49.4012 49.4201 49.0368C49.0996 48.6721 48.5441 48.6365 48.1798 48.9571C47.0141 49.982 45.5178 50.5465 43.9669 50.5465C40.4462 50.5465 37.582 47.6823 37.582 44.1616C37.582 40.6411 40.4462 37.7769 43.9669 37.7769C47.4875 37.7769 50.3517 40.6411 50.3517 44.1616C50.3517 44.9365 50.2133 45.6956 49.9403 46.4176C49.7686 46.8717 49.9976 47.3789 50.4516 47.5506C50.9052 47.7222 51.4127 47.4933 51.5845 47.0393C51.9329 46.118 52.1094 45.1498 52.1094 44.1616C52.1095 39.672 48.4567 36.0192 43.9669 36.0192V36.0192Z" fill="#21B371"/>
</g>
<defs>
<clipPath id="clip0">
<rect width="60" height="60" fill="white"/>
</clipPath>
</defs>
</svg>
